<?xml version="1.0" encoding="utf-8"?>
<!-- Generator: Adobe Illustrator 22.1.0, SVG Export Plug-In . SVG Version: 6.00 Build 0)  -->
<svg version="1.1" id="Calque_1" xmlns="http://www.w3.org/2000/svg" xmlns:xlink="http://www.w3.org/1999/xlink" x="0px" y="0px"
	 viewBox="0 0 820 160" style="enable-background:new 0 0 820 160;" xml:space="preserve">
<style type="text/css">
	.st0{fill:#DB3951;}
	.st1{fill:#FFFFFF;}
	.st2{fill:#282828;}
	.st3{fill:none;stroke:#DB3951;stroke-miterlimit:10;}
	.st4{fill:none;stroke:#282828;stroke-miterlimit:10;}
</style>
<g>
	<path class="st0" d="M29.8,11h745.3c7.4,0,13.3,6,13.3,13.3v92.3c0,7.4-6,13.3-13.3,13.3H104.4L77,159v-29H29.8
		c-7.4,0-13.3-6-13.3-13.3V24.3C16.5,17,22.5,11,29.8,11z"/>
	<g>
		<path class="st1" d="M33.3,5.5h745.3c7.4,0,13.3,6,13.3,13.3v92.3c0,7.4-6,13.3-13.3,13.3H107.9l-27.4,29v-29H33.3
			c-7.4,0-13.3-6-13.3-13.3V18.8C20,11.5,26,5.5,33.3,5.5z"/>
		<g>
			<path class="st2" d="M33.3,7c7.3,0,14.5,0,21.8,0c19.8,0,39.6,0,59.4,0c28.9,0,57.9,0,86.8,0c34.9,0,69.9,0,104.8,0
				c37.8,0,75.5,0,113.3,0c37.5,0,75.1,0,112.6,0c33.8,0,67.6,0,101.4,0c27,0,54,0,81.1,0c17,0,34.1,0,51.1,0c3.8,0,7.6-0.1,11.4,0
				c0.5,0,1.1,0,1.6,0c9.2,0.4,11.8,8,11.8,15.6c0,29.2,0.9,58.6,0,87.8c-0.3,9.1-7.2,12.5-14.9,12.5c-4.9,0-9.7,0-14.6,0
				c-19.7,0-39.4,0-59,0c-29.9,0-59.7,0-89.6,0c-35.8,0-71.7,0-107.5,0c-38,0-75.9,0-113.9,0c-36.2,0-72.3,0-108.5,0
				c-30.4,0-60.8,0-91.2,0c-20.8,0-41.5,0-62.3,0c-5.4,0-10.9,0-16.3,0c-2.3,0-4.5-0.5-6.3,0.9c-2,1.6-3.7,3.9-5.5,5.8
				c-3,3.2-6.1,6.5-9.1,9.7c-4.1,4.4-8.2,8.7-12.3,13.1c0.9,0.4,1.7,0.7,2.6,1.1c0-9.7,0-19.3,0-29c0-0.8-0.7-1.5-1.5-1.5
				c-10.9,0-21.9,0-32.8,0c-4.7,0-9.4,0.2-14,0c-7.6-0.3-12-5.7-12.2-12.9c-0.6-23.9,0-47.9,0-71.9c0-5.3,0-10.6,0-16
				C21.5,14.6,24.4,7.5,33.3,7c1.9-0.1,1.9-3.1,0-3c-8.4,0.4-14.5,6.5-14.8,15c-0.1,3.2,0,6.4,0,9.6c0,14.6,0,29.3,0,43.9
				c0,12.3-0.1,24.5,0,36.8c0,5.1,1.2,9.8,5.3,13.3c4.4,3.7,9.6,3.5,15,3.5c13.9,0,27.8,0,41.7,0c-0.5-0.5-1-1-1.5-1.5
				c0,9.7,0,19.3,0,29c0,1.3,1.7,2,2.6,1.1c4.3-4.6,8.7-9.2,13-13.8c4.7-5,9.2-10.6,14.3-15.1c-0.9,0.8-1.1,0.2,0.6,0.3
				c1.5,0.1,3.1,0,4.6,0c15.3,0,30.6,0,45.9,0c27.1,0,54.1,0,81.2,0c34.5,0,69,0,103.6,0c38,0,76.1,0,114.1,0c37.5,0,75,0,112.5,0
				c32.9,0,65.8,0,98.7,0c24.3,0,48.7,0,73,0c11.5,0,23,0.1,34.5,0c9.6-0.1,16-6.6,16.1-16.2c0.1-14.4,0-28.9,0-43.3
				c0-15.1,0-30.3,0-45.4c0-9.6-5.6-17-15.7-17.1c-10.1-0.1-20.2,0-30.3,0c-22.2,0-44.4,0-66.6,0c-30.8,0-61.6,0-92.4,0
				C552.4,4,516.2,4,480,4c-38.3,0-76.6,0-114.9,0C328,4,290.8,4,253.7,4c-32.8,0-65.6,0-98.4,0c-24.9,0-49.9,0-74.8,0
				C66.6,4,52.7,4,38.7,4c-1.8,0-3.6,0-5.4,0C31.4,4,31.4,7,33.3,7z"/>
		</g>
	</g>
	<g>
		<g>
			<line class="st3" x1="751.5" y1="23.8" x2="751.5" y2="35.8"/>
			<line class="st3" x1="757.5" y1="29.8" x2="745.5" y2="29.8"/>
		</g>
		<g>
			<line class="st4" x1="752.5" y1="22.8" x2="752.5" y2="34.8"/>
			<line class="st4" x1="758.5" y1="28.8" x2="746.5" y2="28.8"/>
		</g>
	</g>
	<g>
		<g>
			<line class="st3" x1="733.3" y1="64" x2="733.3" y2="82"/>
			<line class="st3" x1="742.3" y1="73" x2="724.3" y2="73"/>
		</g>
		<g>
			<line class="st4" x1="734.8" y1="62.5" x2="734.8" y2="80.5"/>
			<line class="st4" x1="743.8" y1="71.5" x2="725.8" y2="71.5"/>
		</g>
	</g>
	<g>
		<g>
			<line class="st3" x1="764.7" y1="93.7" x2="764.7" y2="101.5"/>
			<line class="st3" x1="768.6" y1="97.6" x2="760.8" y2="97.6"/>
		</g>
		<g>
			<line class="st4" x1="765.3" y1="93" x2="765.3" y2="100.8"/>
			<line class="st4" x1="769.3" y1="96.9" x2="761.4" y2="96.9"/>
		</g>
	</g>
	<g>
		<g>
			<line class="st3" x1="145.7" y1="31.7" x2="145.7" y2="39.5"/>
			<line class="st3" x1="149.6" y1="35.6" x2="141.8" y2="35.6"/>
		</g>
		<g>
			<line class="st4" x1="146.3" y1="31" x2="146.3" y2="38.8"/>
			<line class="st4" x1="150.3" y1="34.9" x2="142.4" y2="34.9"/>
		</g>
	</g>
	<g>
		<g>
			<line class="st3" x1="115.4" y1="48.9" x2="115.4" y2="62.8"/>
			<line class="st3" x1="122.3" y1="55.8" x2="108.5" y2="55.8"/>
		</g>
		<g>
			<line class="st4" x1="116.6" y1="47.8" x2="116.6" y2="61.6"/>
			<line class="st4" x1="123.5" y1="54.7" x2="109.7" y2="54.7"/>
		</g>
	</g>
	<g>
		<g>
			<line class="st3" x1="238.7" y1="102.3" x2="238.7" y2="108.8"/>
			<line class="st3" x1="242" y1="105.5" x2="235.5" y2="105.5"/>
		</g>
		<g>
			<line class="st4" x1="239.3" y1="101.8" x2="239.3" y2="108.2"/>
			<line class="st4" x1="242.5" y1="105" x2="236" y2="105"/>
		</g>
	</g>
	<g>
		<g>
			<line class="st3" x1="285.3" y1="14" x2="285.3" y2="32"/>
			<line class="st3" x1="294.3" y1="23" x2="276.3" y2="23"/>
		</g>
		<g>
			<line class="st4" x1="286.8" y1="12.5" x2="286.8" y2="30.5"/>
			<line class="st4" x1="295.8" y1="21.5" x2="277.8" y2="21.5"/>
		</g>
	</g>
</g>
</svg>
