<?xml version="1.0" encoding="utf-8"?>
<!-- Generator: Adobe Illustrator 22.1.0, SVG Export Plug-In . SVG Version: 6.00 Build 0)  -->
<svg version="1.1" id="Calque_1" xmlns="http://www.w3.org/2000/svg" xmlns:xlink="http://www.w3.org/1999/xlink" x="0px" y="0px"
	 viewBox="0 0 820 400" style="enable-background:new 0 0 820 400;" xml:space="preserve">
<style type="text/css">
	.st0{fill:#DB3951;}
	.st1{fill:#FFFFFF;}
	.st2{fill:#282828;}
	.st3{fill:none;stroke:#DB3951;stroke-miterlimit:10;}
	.st4{fill:none;stroke:#282828;stroke-miterlimit:10;}
</style>
<g>
	<path class="st0" d="M41.5,48h730c11.6,0,21,9.4,21,21v226c0,11.6-9.4,21-21,21h-592l-36,47v-47h-102c-11.6,0-21-9.4-21-21V69
		C20.5,57.4,29.9,48,41.5,48z"/>
	<g>
		<path class="st1" d="M49,37.5h730c11.6,0,21,9.4,21,21v226c0,11.6-9.4,21-21,21H187l-36,47v-47H49c-11.6,0-21-9.4-21-21v-226
			C28,46.9,37.4,37.5,49,37.5z"/>
		<g>
			<path class="st2" d="M49,39c8.1,0,16.2,0,24.3,0c21.7,0,43.3,0,65,0c31.6,0,63.2,0,94.8,0c37.4,0,74.9,0,112.3,0
				c39.8,0,79.6,0,119.4,0c38.2,0,76.3,0,114.5,0c32.6,0,65.2,0,97.7,0c23.5,0,46.9,0,70.4,0c10.3,0,20.7-0.3,31,0
				c6.8,0.2,13.2,3,17,8.9c2.7,4.2,3.1,8.8,3.1,13.6c0,10.3,0,20.7,0,31c0,37.4,0,74.7,0,112.1c0,26.1,0.1,52.3,0,78.4
				c-0.1,12.2-8.5,21-20.8,21.1c-4.6,0-9.2,0-13.7,0c-21.4,0-42.9,0-64.3,0c-33.2,0-66.4,0-99.5,0c-39,0-78.1,0-117.1,0
				c-38.9,0-77.7,0-116.6,0c-33.2,0-66.4,0-99.7,0c-21.5,0-43,0-64.5,0c-4.6,0-9.3-0.2-13.9,0c-1.3,0.1-1.6-0.1-2.7,0.8
				c-1.2,0.9-2.1,2.8-3.1,4c-2.3,3-4.7,6.1-7,9.1c-8.6,11.3-17.3,22.6-25.9,33.9c0.9,0.3,1.9,0.5,2.8,0.8c0-15.7,0-31.3,0-47
				c0-0.8-0.7-1.5-1.5-1.5c-25.6,0-51.3,0-76.9,0c-6.2,0-12.4,0-18.6,0c-3.3,0-6.9,0.3-10.2-0.3c-9.6-1.8-15.6-10.2-15.8-19.6
				c-0.1-2.1,0-4.2,0-6.3c0-25.2,0-50.4,0-75.6c0-32.8,0-65.5,0-98.3c0-11.4,0-22.8,0-34.2c0-6.7-0.9-14.5,2.4-20.6
				C35.4,42.8,41.9,39.2,49,39c1.9-0.1,1.9-3.1,0-3c-10.6,0.3-19.9,7.4-22.1,18c-0.5,2.5-0.4,4.9-0.4,7.4c0,8.9,0,17.8,0,26.7
				c0,32.9,0,65.8,0,98.8c0,28.8,0,57.6,0,86.4c0,6.7-0.8,14.2,2,20.3c3.7,8.3,11.8,13.1,20.8,13.3c3.6,0.1,7.3,0,10.9,0
				c29.5,0,59,0,88.6,0c0.7,0,1.5,0,2.2,0c-0.5-0.5-1-1-1.5-1.5c0,15.7,0,31.3,0,47c0,1.6,1.9,1.9,2.8,0.8
				c9.1-11.9,18.2-23.8,27.3-35.6c2.2-2.8,4.3-5.6,6.5-8.5c0.5-0.6,1.5-1.5,1.8-2.3c0.5-1.4,1.1,0.7-0.8,0.1c0.7,0.2,1.7,0,2.4,0
				c14.9,0,29.7,0,44.6,0c29.1,0,58.2,0,87.4,0c37.6,0,75.3,0,112.9,0c40.1,0,80.1,0,120.2,0c36.4,0,72.7,0,109.1,0
				c26.9,0,53.8,0,80.7,0c11.5,0,23.1,0.3,34.6,0c13.9-0.3,22.7-11.2,22.7-24.6c0-9.8,0-19.6,0-29.4c0-37.4,0-74.8,0-112.2
				c0-26.8,0.1-53.7,0-80.5c-0.1-13.3-8.9-24-22.7-24.3c-2.9-0.1-5.9,0-8.8,0c-16.9,0-33.7,0-50.6,0c-28.3,0-56.6,0-85,0
				c-36,0-72.1,0-108.1,0c-39.6,0-79.2,0-118.7,0c-39.5,0-79.1,0-118.6,0c-35.3,0-70.5,0-105.8,0c-27.4,0-54.7,0-82.1,0
				c-15.3,0-30.7,0-46,0c-2,0-4,0-6,0C47.1,36,47.1,39,49,39z"/>
		</g>
	</g>
	<g>
		<g>
			<line class="st3" x1="689.5" y1="69.8" x2="689.5" y2="81.8"/>
			<line class="st3" x1="695.5" y1="75.8" x2="683.5" y2="75.8"/>
		</g>
		<g>
			<line class="st4" x1="690.5" y1="68.8" x2="690.5" y2="80.8"/>
			<line class="st4" x1="696.5" y1="74.8" x2="684.5" y2="74.8"/>
		</g>
	</g>
	<g>
		<g>
			<line class="st3" x1="750.3" y1="164" x2="750.3" y2="182"/>
			<line class="st3" x1="759.3" y1="173" x2="741.3" y2="173"/>
		</g>
		<g>
			<line class="st4" x1="751.8" y1="162.5" x2="751.8" y2="180.5"/>
			<line class="st4" x1="760.8" y1="171.5" x2="742.8" y2="171.5"/>
		</g>
	</g>
	<g>
		<g>
			<line class="st3" x1="770.6" y1="239.6" x2="770.6" y2="249.8"/>
			<line class="st3" x1="775.7" y1="244.7" x2="765.5" y2="244.7"/>
		</g>
		<g>
			<line class="st4" x1="771.4" y1="238.8" x2="771.4" y2="248.9"/>
			<line class="st4" x1="776.5" y1="243.8" x2="766.3" y2="243.8"/>
		</g>
	</g>
	<g>
		<g>
			<line class="st3" x1="749.7" y1="66.7" x2="749.7" y2="74.5"/>
			<line class="st3" x1="753.6" y1="70.6" x2="745.8" y2="70.6"/>
		</g>
		<g>
			<line class="st4" x1="750.3" y1="66" x2="750.3" y2="73.8"/>
			<line class="st4" x1="754.3" y1="69.9" x2="746.4" y2="69.9"/>
		</g>
	</g>
	<g>
		<g>
			<line class="st3" x1="153.7" y1="125.7" x2="153.7" y2="133.5"/>
			<line class="st3" x1="157.6" y1="129.6" x2="149.8" y2="129.6"/>
		</g>
		<g>
			<line class="st4" x1="154.3" y1="125" x2="154.3" y2="132.8"/>
			<line class="st4" x1="158.3" y1="128.9" x2="150.4" y2="128.9"/>
		</g>
	</g>
	<g>
		<g>
			<line class="st3" x1="100.4" y1="125.9" x2="100.4" y2="139.8"/>
			<line class="st3" x1="107.3" y1="132.8" x2="93.5" y2="132.8"/>
		</g>
		<g>
			<line class="st4" x1="101.6" y1="124.8" x2="101.6" y2="138.6"/>
			<line class="st4" x1="108.5" y1="131.7" x2="94.7" y2="131.7"/>
		</g>
	</g>
	<g>
		<g>
			<line class="st3" x1="132.2" y1="239.9" x2="132.2" y2="260.2"/>
			<line class="st3" x1="142.3" y1="250.1" x2="122" y2="250.1"/>
		</g>
		<g>
			<line class="st4" x1="133.8" y1="238.3" x2="133.8" y2="258.6"/>
			<line class="st4" x1="144" y1="248.4" x2="123.7" y2="248.4"/>
		</g>
	</g>
	<g>
		<g>
			<line class="st3" x1="216.3" y1="66" x2="216.3" y2="84"/>
			<line class="st3" x1="225.3" y1="75" x2="207.3" y2="75"/>
		</g>
		<g>
			<line class="st4" x1="217.8" y1="64.5" x2="217.8" y2="82.5"/>
			<line class="st4" x1="226.8" y1="73.5" x2="208.8" y2="73.5"/>
		</g>
	</g>
</g>
</svg>
