<?xml version="1.0" encoding="utf-8"?>
<!-- Generator: Adobe Illustrator 22.1.0, SVG Export Plug-In . SVG Version: 6.00 Build 0)  -->
<svg version="1.1" id="Calque_1" xmlns="http://www.w3.org/2000/svg" xmlns:xlink="http://www.w3.org/1999/xlink" x="0px" y="0px"
	 viewBox="0 0 820 400" style="enable-background:new 0 0 820 400;" xml:space="preserve">
<style type="text/css">
	.st0{fill:#F87D42;}
	.st1{fill:#FFFFFF;}
	.st2{fill:#282828;}
	.st3{fill:none;stroke:#F87D42;stroke-miterlimit:10;}
	.st4{fill:none;stroke:#282828;stroke-miterlimit:10;}
</style>
<g>
	<path class="st0" d="M779,48H49c-11.6,0-21,9.4-21,21v226c0,11.6,9.4,21,21,21h592l36,47v-47h102c11.6,0,21-9.4,21-21V69
		C800,57.4,790.6,48,779,48z"/>
	<g>
		<path class="st1" d="M771.5,37.5h-730c-11.6,0-21,9.4-21,21v226c0,11.6,9.4,21,21,21h592l36,47v-47h102c11.6,0,21-9.4,21-21v-226
			C792.5,46.9,783.1,37.5,771.5,37.5z"/>
		<g>
			<path class="st2" d="M771.5,36c-8.3,0-16.5,0-24.8,0c-22,0-44.1,0-66.1,0c-31.9,0-63.8,0-95.7,0c-38.1,0-76.1,0-114.2,0
				c-40,0-80,0-120,0c-38.2,0-76.4,0-114.6,0c-32.6,0-65.2,0-97.8,0c-22.9,0-45.7,0-68.6,0c-9.3,0-18.7-0.2-28.1,0
				C27.5,36.3,19,47.5,19,60.9C19,70.9,19,81,19,91c0,37.4,0,74.7,0,112.1c0,26.6-0.1,53.2,0,79.7c0.1,13.3,9.2,23.9,22.8,24.1
				c3.7,0.1,7.3,0,11,0c20.2,0,40.5,0,60.7,0c32.5,0,65.1,0,97.6,0c39.1,0,78.2,0,117.3,0c39.4,0,78.8,0,118.2,0
				c33.9,0,67.8,0,101.7,0c22.6,0,45.2,0,67.7,0c5.1,0,10.2,0,15.3,0c0.5,0,3.1,0.2,1.5-0.4c-1.2-0.4-0.3-0.1,0.1,0.6
				c0.5,1,1.5,1.9,2.2,2.8c2.3,3,4.6,6,6.9,9c8.7,11.4,17.5,22.8,26.2,34.2c0.8,1.1,2.8,0.9,2.8-0.8c0-15.7,0-31.3,0-47
				c-0.5,0.5-1,1-1.5,1.5c26.9,0,53.8,0,80.7,0c9.4,0,22.3,2,31.1-2.3c10.6-5.1,12.7-15.4,12.7-25.9c0-26.2,0-52.4,0-78.6
				c0-34,0-68,0-102c0-10.8,0-21.6,0-32.4c0-9.4-0.3-18.4-8.5-24.9C781.4,37.7,776.6,36.2,771.5,36c-1.9-0.1-1.9,2.9,0,3
				c11.1,0.4,19.2,8.8,19.5,19.8c0.1,1.8,0,3.7,0,5.5c0,9.8,0,19.5,0,29.3c0,32.1,0,64.2,0,96.3c0,27.5,0,55,0,82.5
				c0,5.8,0.8,12.8-1,18.3c-5.1,15.1-20.6,13.3-33.1,13.3c-28.4,0-56.8,0-85.3,0c-0.7,0-1.4,0-2.1,0c-0.8,0-1.5,0.7-1.5,1.5
				c0,15.7,0,31.3,0,47c0.9-0.3,1.9-0.5,2.8-0.8c-9-11.8-18-23.5-27-35.3c-2.2-2.9-4.4-5.7-6.6-8.6c-0.7-0.9-1.6-2.8-2.6-3.4
				c-0.9-0.6-1.7-0.4-2.7-0.4c-13.8-0.2-27.6,0-41.4,0c-28.3,0-56.6,0-84.9,0c-36.8,0-73.6,0-110.4,0c-39.8,0-79.5,0-119.3,0
				c-36.6,0-73.2,0-109.8,0c-27.9,0-55.8,0-83.8,0c-13.2,0-26.4,0.1-39.7,0c-12.5-0.1-20.6-9.1-20.7-21.3c0-9.5,0-19,0-28.5
				c0-36.8,0-73.6,0-110.4c0-27.5,0-55.1,0-82.6c0-12,7.3-22,20.2-22.1c3.4,0,6.8,0,10.2,0c17.6,0,35.1,0,52.7,0
				c28.6,0,57.2,0,85.8,0c35.9,0,71.7,0,107.6,0c39.5,0,79,0,118.5,0c39.2,0,78.4,0,117.5,0c34.9,0,69.7,0,104.6,0
				c26.9,0,53.9,0,80.8,0c15.2,0,30.4,0,45.7,0c2,0,4,0,5.9,0C773.4,39,773.4,36,771.5,36z"/>
		</g>
	</g>
	<g>
		<g>
			<line class="st3" x1="131" y1="69.8" x2="131" y2="81.8"/>
			<line class="st3" x1="125" y1="75.8" x2="137" y2="75.8"/>
		</g>
		<g>
			<line class="st4" x1="130" y1="68.8" x2="130" y2="80.8"/>
			<line class="st4" x1="124" y1="74.8" x2="136" y2="74.8"/>
		</g>
	</g>
	<g>
		<g>
			<line class="st3" x1="70.3" y1="164" x2="70.3" y2="182"/>
			<line class="st3" x1="61.3" y1="173" x2="79.3" y2="173"/>
		</g>
		<g>
			<line class="st4" x1="68.8" y1="162.5" x2="68.8" y2="180.5"/>
			<line class="st4" x1="59.8" y1="171.5" x2="77.8" y2="171.5"/>
		</g>
	</g>
	<g>
		<g>
			<line class="st3" x1="49.9" y1="239.6" x2="49.9" y2="249.8"/>
			<line class="st3" x1="44.8" y1="244.7" x2="55" y2="244.7"/>
		</g>
		<g>
			<line class="st4" x1="49.1" y1="238.8" x2="49.1" y2="248.9"/>
			<line class="st4" x1="44" y1="243.8" x2="54.2" y2="243.8"/>
		</g>
	</g>
	<g>
		<g>
			<line class="st3" x1="70.8" y1="66.7" x2="70.8" y2="74.5"/>
			<line class="st3" x1="66.9" y1="70.6" x2="74.8" y2="70.6"/>
		</g>
		<g>
			<line class="st4" x1="70.2" y1="66" x2="70.2" y2="73.8"/>
			<line class="st4" x1="66.3" y1="69.9" x2="74.1" y2="69.9"/>
		</g>
	</g>
	<g>
		<g>
			<line class="st3" x1="666.8" y1="125.7" x2="666.8" y2="133.5"/>
			<line class="st3" x1="662.9" y1="129.6" x2="670.8" y2="129.6"/>
		</g>
		<g>
			<line class="st4" x1="666.2" y1="125" x2="666.2" y2="132.8"/>
			<line class="st4" x1="662.3" y1="128.9" x2="670.1" y2="128.9"/>
		</g>
	</g>
	<g>
		<g>
			<line class="st3" x1="720.1" y1="125.9" x2="720.1" y2="139.8"/>
			<line class="st3" x1="713.2" y1="132.8" x2="727" y2="132.8"/>
		</g>
		<g>
			<line class="st4" x1="718.9" y1="124.8" x2="718.9" y2="138.6"/>
			<line class="st4" x1="712" y1="131.7" x2="725.8" y2="131.7"/>
		</g>
	</g>
	<g>
		<g>
			<line class="st3" x1="688.3" y1="239.9" x2="688.3" y2="260.2"/>
			<line class="st3" x1="678.2" y1="250.1" x2="698.5" y2="250.1"/>
		</g>
		<g>
			<line class="st4" x1="686.7" y1="238.3" x2="686.7" y2="258.6"/>
			<line class="st4" x1="676.5" y1="248.4" x2="696.8" y2="248.4"/>
		</g>
	</g>
	<g>
		<g>
			<line class="st3" x1="604.3" y1="66" x2="604.3" y2="84"/>
			<line class="st3" x1="595.3" y1="75" x2="613.3" y2="75"/>
		</g>
		<g>
			<line class="st4" x1="602.8" y1="64.5" x2="602.8" y2="82.5"/>
			<line class="st4" x1="593.8" y1="73.5" x2="611.8" y2="73.5"/>
		</g>
	</g>
</g>
</svg>
