<?xml version="1.0" encoding="utf-8"?>
<!-- Generator: Adobe Illustrator 22.1.0, SVG Export Plug-In . SVG Version: 6.00 Build 0)  -->
<svg version="1.1" id="Calque_1" xmlns="http://www.w3.org/2000/svg" xmlns:xlink="http://www.w3.org/1999/xlink" x="0px" y="0px"
	 viewBox="0 0 827 905" style="enable-background:new 0 0 827 905;" xml:space="preserve">
<style type="text/css">
	.st0{fill:#C3F1FF;}
	.st1{fill:none;stroke:#000000;stroke-width:7;stroke-miterlimit:10;}
	.st2{fill:#282828;}
	.st3{fill:#35D0BA;}
	.st4{fill:none;stroke:#282828;stroke-width:7;stroke-miterlimit:10;}
	.st5{fill:#FFF4F0;stroke:#282828;stroke-miterlimit:10;}
	.st6{fill:none;stroke:#282828;stroke-width:5;stroke-miterlimit:10;}
	.st7{fill:none;stroke:#252525;stroke-width:7;stroke-miterlimit:10;}
	.st8{fill:none;stroke:#252525;stroke-miterlimit:10;}
	.st9{fill:none;stroke:#252525;stroke-width:2;stroke-miterlimit:10;}
	.st10{fill:#252525;}
</style>
<path class="st0" d="M548,390.5c0.5-0.3,34.1-7.2,34.1-7.2s-7.1,28.5-29.7,26.3C529.7,407.5,548,390.5,548,390.5z"/>
<path class="st0" d="M369.1,420.9"/>
<path class="st1" d="M-79.3,515.5"/>
<g>
	<path class="st0" d="M536.2,442.4c6,8-0.9,140.8-0.9,140.8s-93.9,8.7-134.4-1.9s-61.9-20.2-61.9-20.2s1.4-121.5,10.6-133.4
		S536.2,442.4,536.2,442.4z"/>
	<g>
		<path class="st2" d="M532.3,444.7C533,445.6,532.2,444,532.3,444.7c0.2,0.4,0.3,0.8,0.4,1.2c0.3,1.6,0.4,2,0.5,3.1
			c0.4,3.9,0.6,7.9,0.7,11.8c0.4,11.2,0.2,22.4,0.1,33.6c-0.4,24.1-1.3,48.2-2.4,72.2c-0.2,5.5-0.5,11-0.8,16.5c1.5-1.5,3-3,4.5-4.5
			c-20.5,1.9-41.2,2.9-61.8,3.3c-16.4,0.3-32.9,0.1-49.3-1.4c-17.4-1.6-34-6.6-50.6-11.8c-8.1-2.5-16.2-5.3-24.1-8.3
			c-2.2-0.8-4.5-1.7-6.7-2.6c-1.3-0.5-0.1,0-1.4-0.6c0.7,1.3,1.5,2.6,2.2,3.9c0.2-19.2,0.8-38.4,1.6-57.5c0.6-14.7,1.4-29.4,2.8-44
			c0.9-9.5,1.6-19.5,4.8-28.5c-0.5,1.3,0.4-0.7,0.4-0.7c-0.1-0.9-0.4,1.1-0.6,0.6c-0.1-0.2,1.8-0.6,0.3-0.2c0.6-0.1,1.2-0.4,1.8-0.5
			c3.1-0.7,5.3-0.8,9.1-1c11-0.4,22.1,0.3,33.2,1.1c28.2,2,56.3,5.4,84.4,9c17.9,2.3,35.8,4.7,53.6,7.4c5.7,0.8,8.1-7.8,2.4-8.7
			c-44.5-6.7-89.2-12.6-134-16.2c-11.9-1-23.9-1.8-35.9-1.7c-6.1,0.1-15.5-0.6-20.4,3.9c-5.5,5-5.7,16.5-6.6,23.2
			c-1.8,13.8-2.7,27.8-3.5,41.7c-1.3,24-2.1,48.1-2.4,72.2c0,1.4,0.8,3.3,2.2,3.9c8.4,3.7,17.1,6.7,25.7,9.6
			c17.6,5.9,35.5,11.7,53.9,14c31.1,4,63.1,2.6,94.3,0.8c8.2-0.5,16.4-1,24.5-1.8c2.5-0.2,4.4-1.9,4.5-4.5
			c2.1-40.3,4.3-80.9,3.1-121.2c-0.1-4.5-0.3-9-0.8-13.4c-0.3-2.7-0.5-6.1-2.1-8.4C536.8,435.4,529,439.9,532.3,444.7z"/>
	</g>
</g>
<path class="st0" d="M510,490.3c23.6,61.4-1,107.4-1,107.4l1.5,12.1c0,0,28.2-2.1,26.8,13s-32.7,22.3-50.8,20.3s-20.3,0.7-22-15.4
	c-1.7-16,2.4-32.9-8-43.2c-10.4-10.2-21.5-20-33.2-6.1c-11.6,14-4.5,50.3-9.2,60.6s-5.7,7.5-24.3,6.2s-48.2-1-46.7-11.6
	c1.5-10.5,5.6-16.7,14.4-18.7c8.8-2,12.5-9.2,12.5-9.2s-5.8-12.6-7.2-17.8c-1.3-5.2-7.9-36-6.4-52.5c1.4-16.5,13.4-61.4,13.4-61.4"
	/>
<path class="st0" d="M339.1,324.8c0,0-39.2-2.7-38,35.5c1.2,38.2,34.1,35.4,34.1,35.4"/>
<ellipse transform="matrix(5.532966e-02 -0.9985 0.9985 5.532966e-02 50.4484 787.1477)" class="st0" cx="441.2" cy="366.9" rx="101.3" ry="111.7"/>
<path class="st3" d="M486.5,275.3l1,17.6c0,0-16.5-5.2-36.9-4.9c-10.2,0.3-10.2,0.3-10.2,0.3l-1.3-22.7
	C439.2,265.7,473.4,269.2,486.5,275.3z"/>
<path class="st3" d="M437.6,436.3c0,0,11.2,2.7,11.5,8.5c0.3,5.8,2.8,14.4-9.8,22.5c41.7-6.4,70.9-10.4,92.8-41.1
	c21.9-30.7,20.8-32.5,20.8-32.5s22.1,1.9,27.3-11.7c5.3-13.5-0.9-40-15.8-43.8c-14.9-3.7-15.7-6.1-15.7-6.1s-15.4-39.8-39.8-48.6
	c-7.2-3.5-7.6-2.1-7.6-2.1l1,22c0,0,33.1,18.9,22.2,71.2S466,431.1,437.6,436.3z"/>
<path class="st4" d="M549,337.2c0,0,39.3,2,33.5,39.8s-38,31.1-38,31.1"/>
<path class="st3" d="M438,555.2c0,0-35.4-0.8-32.6,89c8.5,1.9,11.8-5.2,11.8-5.2l-0.4-44l10-20l13.4-1.4L438,555.2z"/>
<path class="st3" d="M377.1,445.6"/>
<path class="st3" d="M520.2,491.3l2.9,66l-11.5,36l0,15.1c0,0,20.9,3.9,22.8,6.7c6.1,8.9,7.7,13.9-3.5,21.1c-12.8,8.3-54.3,5-54.3,5
	l-6.9-41.9c0,0-1-18.2-12.6-26.2c-11.6-8.1-11.5-27.7-11.5-27.7l9.1-15.9c0,0,34.2-6.3,39-19c4.8-12.7-7.5-48.6-7.5-48.6
	s25.8-0.5,27.5-1.2"/>
<path class="st3" d="M427.6,479.6c13.8,3.7,12.9,3.8,12.9,3.8l1.8,30.8l4.3,8.5l39.9-17.5l-2.5-44.2c0,0-22.4,12.6-40.2,13.6
	c-17.8,1-33.3-1.1-33.3-1.1S413.2,475.7,427.6,479.6z"/>
<path class="st4" d="M417.7,605.3l-51.2-2.8l2.7,11.7c0,0-26.4-1.5-25.7,15.1c0.5,12.7,9.2,13.8,9.2,13.8c11.6,0.6,49.6,2.7,54.5,3
	c5,0.3,8.5-4.5,9.3-17.7S417.7,605.3,417.7,605.3z"/>
<path class="st4" d="M462.5,604.7l49.8-6.8l-1.7,11.9c0,0,26.2-3.6,26.8,13s-8,14.5-8,14.5c-11.5,1.6-49.2,6.7-54.1,7.4
	c-4.9,0.7-8.9-3.8-10.7-16.9C462.8,614.7,462.5,604.7,462.5,604.7z"/>
<g>
	<g>
		<path class="st5" d="M446.2,297.3c-54.5-3-80.2,12.1-82.7,56.7c-2.5,44.6,29.3,69.6,75.5,72.1"/>
		<path class="st5" d="M446.2,297.3c54.5,3.7,79.8,22,76.7,66.6c-3.1,44.6-37.6,65.4-83.9,62.2"/>
	</g>
</g>
<g>
	<g>
		<path class="st6" d="M447,297.1c-54.5-3-80.2,12.1-82.7,56.7s29.3,69.6,75.5,72.1"/>
		<path class="st6" d="M447,297.1c54.5,3.7,79.8,22,76.7,66.6c-3.1,44.6-37.6,65.4-83.9,62.2"/>
	</g>
</g>
<path class="st7" d="M339.1,324.8c0,0-39.2-2.7-38,35.5c1.2,38.2,34.1,35.4,34.1,35.4"/>
<path class="st4" d="M339,324.8c0,0-39.2-2.7-38,35.5c1.2,38.2,34.1,35.4,34.1,35.4"/>
<path class="st1" d="M391.3,275c0,0-2.3,14.8-1.7,30.6"/>
<path class="st1" d="M504.2,281.1c0,0,1.2,13.6-0.3,30.8"/>
<path class="st4" d="M400.7,458.9c0,0-5.3,40.8-0.6,46.1c4.7,5.2,42,18.9,42,18.9"/>
<path class="st4" d="M485.8,458.4c0,0,4.3,43.9-0.7,48.8c-5,5-43,16.6-43,16.6"/>
<path class="st4" d="M416.4,604.4c0,0-2.4-33.3,23-31.9c1.1-19.8,2.7-48.7,2.7-48.7"/>
<path class="st4" d="M464.5,604.6c0,0-6.3-31-25.1-32"/>
<path class="st1" d="M514.7,447.5"/>
<path class="st1" d="M377.3,441.5"/>
<path class="st4" d="M524.7,555.2c-3.1,19.9-15,42.6-15,42.6"/>
<ellipse transform="matrix(5.532966e-02 -0.9985 0.9985 5.532966e-02 92.6757 847.4908)" class="st2" cx="494.2" cy="374.8" rx="3.7" ry="7.9"/>
<ellipse transform="matrix(0.9992 -4.039453e-02 4.039453e-02 0.9992 -14.8867 16.256)" class="st2" cx="394.8" cy="376.5" rx="7.9" ry="3.7"/>
<path class="st8" d="M566.9,342.4"/>
<line class="st4" x1="314.2" y1="291.6" x2="325.3" y2="328.5"/>
<circle class="st2" cx="312.6" cy="288" r="11.7"/>
<path class="st9" d="M263.8,506.1"/>
<path class="st0" d="M549.1,513.1"/>
<ellipse transform="matrix(5.532966e-02 -0.9985 0.9985 5.532966e-02 51.7134 786.5903)" class="st4" cx="441.5" cy="366" rx="101.3" ry="111.7"/>
<path class="st0" d="M368.7,483.4c0,0-59.3-17.7-73.9-29.6c-8.6-7-30.2-27.7-33.7-41.9c-2.4-9.8,12.5-12.7,10.5-21.2
	c-5.2-22.9,7.3-9.3,9.3-8.9c2,0.3,11,16.8,11,16.8s15,0.7,11.4,8.2s28.4,27.9,45,32.7"/>
<path class="st3" d="M364.6,483l-46.8-14.8l-32.5-19.6l-14.9-19.7l-11.6-19.1l0,0c0,0-0.5,2.3,1.5,0c2.2-2.5,5.7-5.2,12.2-3.6
	c4.5,1.1,8,3.3,10.5,6.5c2.4,3.1,8.5,8,9.4,9.2c4.3,6.1,1.6,5.9,18,16c16.4,10.1,24,13.2,33.9,15s26.3,5.7,26.3,5.7
	c7.5,1.3,15.5,36.1,15.5,49.3s-5.1,11.3-8.9,25.3S359,575.1,359,575.1S359.7,520.3,364.6,483"/>
<path class="st4" d="M367.6,602.5c0,0-12.2-27.9-10.9-52.5c1.4-25.5,10.9-73.5,10.9-73.5"/>
<path class="st4" d="M366.9,483c0,0-28.8-7.3-55.2-19.7c-26.5-12.4-39.9-30.3-39.9-30.3s17-6.8,35.5-17.4
	c11.5,19.9,67.5,30.9,67.5,30.9"/>
<g>
	<g>
		<path class="st2" d="M456.7,390.7c-7.4,3.9-16.6,3.6-24,0c-3.5-1.7-6.5,3.5-3,5.2c9.4,4.6,20.7,5,30,0
			C463.2,394.1,460.1,388.9,456.7,390.7L456.7,390.7z"/>
	</g>
</g>
<g>
	<g>
		<path class="st10" d="M307.6,415c-1.5-1.5-2.9-3.1-4.2-4.8c-0.2,1.2-0.3,2.4-0.5,3.6c4.4-4.2,5.1-11.5,0.9-16.1
			c-3.7-4-9.6-3.6-14-1.3c1.4,0.4,2.7,0.7,4.1,1.1c-1.8-3.4-3.8-6.8-6-10c-2.7-3.9-6.1-9.1-10.7-10.8c-4.4-1.5-8.1,1.5-8.6,5.9
			c-0.5,4.2,1.3,8.8,3,12.6c0.4-1.4,0.7-2.7,1.1-4.1c-6.6,4.3-13.4,11.2-14.3,19.3c-0.7,6.3,2.7,10.9,6.8,15.2
			c2.6,2.8,6.3,7.4,10.3,8.2c2.8,0.6,3.1-1,4.7-2.5c-3.5,3.1-0.6,1.3,0.3,1c1.7-0.6,3.4-1.6,5.1-2.4c7.2-3.4,14.3-6.8,21.5-10.2
			c3.5-1.7,0.4-6.8-3-5.2c-5.2,2.4-10.3,4.9-15.5,7.3c-3.3,1.5-6.5,3.1-9.8,4.6c-1,0.5-4.6,1.6-4.4,3.2c-0.1-0.9,2.4-1.8,2.4-1.7
			c0-0.1-2.4-1.7-2.7-2c-4.1-3.5-10.3-8.7-9.8-14.6c0.5-6.2,6.5-11.9,11.5-15.1c1.5-1,1.8-2.6,1.1-4.1c-1-2.2-2-4.9-2.2-7.3
			c-0.4-4.9,3-0.8,4.6,1.1c3.8,4.3,6.9,9.5,9.6,14.6c0.8,1.5,2.7,1.8,4.1,1.1c1.6-0.8,4-1.5,5.6-0.6c3.4,1.8,2.5,6.4,0.3,8.6
			c-0.9,0.8-1.2,2.6-0.5,3.6c1.6,2.1,3.3,4.2,5.2,6C306.1,422,310.3,417.7,307.6,415z"/>
	</g>
</g>
<g>
	<path class="st0" d="M511.3,447.7c0,0,64,19.3,74.4,47.1s-37.3,48.7-37.3,48.7l-9.5-17.2c0,0,10.8-20.3,17.1-22.6
		c-6.3,2.2-39.2-17.3-39.2-17.3c7.1,14.8,10.3,26.4,12.4,39.1"/>
</g>
<path class="st3" d="M545.1,533.7c-3.1,2.6-5.6,4.9-6.3,6.5c-2.2,4.7-4.7,13.4-11.5,13.3s-9.7-6.8-9-10.3c0.6-3.5-3.8-15.5,0.5-16.2
	c4.3-0.7,17-3.8,20.8-2c0.8,0.4,1.6-0.4,2.3-1.8"/>
<path class="st0" d="M537.5,527l-21,3.7c0,0,7.7,36.8,18,29.8c10.3-7,13-18.9,13-18.9L537.5,527z"/>
<path class="st3" d="M501.5,512c4.8-12.7,12.5-51.1,12.5-51.1s5.6-0.5,7.2-1.1c1.6-0.6,25.5,15.5,25.5,15.5s22.8,10.8,24.1,23.5
	c1.3,12.7-1.8,20.8-6.2,25.3c-2.9,3-10.7,10.8-17.9,14.4c-6.6,3.3-26.5,5.1-26.5,5.1s-7.6-14.9,6.9-16.4
	c14.5-1.5,21.9-24.5,21.9-24.5l-34.2-14.2L501.5,512z"/>
<g>
	<g>
		<path class="st2" d="M510.3,451.3c16.9,5.1,33.9,12.3,48.7,22c9,5.9,19.8,14.2,21.8,25.5c2,11.2-6.7,20.7-14.7,27.3
			c-6,4.9-13,9.2-20.1,12.3c1.7,0.4,3.4,0.9,5.1,1.3c-3.2-5.7-6.3-11.5-9.5-17.2c0,1.3,0,2.5,0,3.8c1.4-3.1,3-6.1,4.7-9.1
			c2.2-3.8,4.9-9.5,9.1-11.3c3.8-1.6,1.4-6.7-1.9-7c-7.2-0.6-15.2-5.6-21.7-8.8c-5.3-2.6-10.5-5.3-15.7-8c-3.5-1.9-6.7,1.8-5.1,5.1
			c5.8,12.2,9.8,24.9,12,38.2c0.8,4.8,8,2.7,7.2-2c-2.3-14-6.7-27.2-12.8-40c-1.7,1.7-3.4,3.4-5.1,5.1c5.8,3.1,11.7,6.1,17.6,9
			c7.2,3.5,15.4,8.2,23.5,8.9c-0.6-2.3-1.3-4.7-1.9-7c-4.7,2-7.9,7.5-10.4,11.6c-2.2,3.6-4.6,7.5-6,11.4c-1.3,3.5,1.9,7.3,3.6,10.3
			c2,3.6,4,7.2,5.9,10.8c1.1,1.9,3.3,2.1,5.1,1.3c16.3-7.2,37.4-21.7,38.7-41.2c0.8-12.5-7.8-23-17-30.5
			c-10.7-8.7-23.2-15-35.8-20.4c-7.6-3.2-15.4-6.3-23.4-8.7C507.7,442.7,505.7,449.9,510.3,451.3L510.3,451.3z"/>
	</g>
</g>
<path class="st4" d="M538.7,523.6c-5.5,1.4-18.1,3.5-22.2,7.1c-3,2.6-1.4,9.1,1,13c1.7,2.8,4.8,8.7,8.8,13.4
	c11.7,13.7,21.8-14.2,21.8-14.2L538.7,523.6z"/>
<g>
	<g>
		<path class="st2" d="M396.6,354.7c4.9-3.7,11.2-3.6,16,0.2c3,2.4,7.3-1.8,4.2-4.2c-6.8-5.4-16.1-6.6-23.3-1.2
			C390.6,351.8,393.5,357,396.6,354.7L396.6,354.7z"/>
	</g>
</g>
<g>
	<g>
		<path class="st2" d="M472.3,358.6c4.1-3.3,10.9-3.3,16,0.4c3.1,2.3,6.1-2.9,3-5.2c-7.1-5.2-16.4-5.1-23.3,0.5
			C465.1,356.8,469.3,361,472.3,358.6L472.3,358.6z"/>
	</g>
</g>
</svg>
