<svg enable-background="new 0 0 827 905" viewBox="0 0 827 905" xmlns="http://www.w3.org/2000/svg"><path d="m303.9 442.6c-6.2 8 .6 140.8.6 140.8s97.7 8.5 139.9-2.2 64.4-20.3 64.4-20.3-1.2-121.5-10.7-133.4-194.2 15.1-194.2 15.1z" fill="#c3f1ff"/><path d="m300 440.3c-3.3 4.6-2.6 13-2.9 18.2-.5 11.3-.4 22.7-.3 34.1.3 24.6 1.2 49.3 2.3 73.9.2 5.6.5 11.3.8 16.9.1 2.6 2 4.3 4.5 4.5 22.1 1.9 44.3 2.9 66.4 3.2 17.2.2 34.4 0 51.5-1.8 18.9-1.9 37.2-7.1 55.3-12.7 11.3-3.5 22.6-7.1 33.4-11.8 1.4-.6 2.2-2.5 2.2-3.9-.2-20.9-.8-41.9-1.8-62.8-.7-15.2-1.6-30.3-3.3-45.4-.9-8.3-1.1-20.1-6.1-27.3-3.7-5.3-12.4-5.1-18.1-5.3-11.3-.4-22.6.3-33.9 1.1-30.1 2.1-60.2 5.6-90.2 9.4-19.1 2.4-38.2 4.9-57.3 7.7-5.7.8-3.3 9.5 2.4 8.7 43.6-6.4 87.3-12 131.2-15.7 19-1.6 41.1-4.4 58.7-.6-1.8-.4.2-.1.2.2-.1.5-.8-1.8-.5-.3.3 1.3.7 1.4 1.3 3.3 1.3 4.5 2 9.3 2.7 13.9 1.9 14 2.7 28.1 3.5 42.1 1.3 23.7 2 47.4 2.2 71.1.7-1.3 1.5-2.6 2.2-3.9 1.4-.6 0 0-.8.3-1.8.7-3.7 1.4-5.5 2.1-6.5 2.4-13.1 4.7-19.7 6.8-17.9 5.7-36.2 11.5-54.9 13.7-31.9 3.7-64.6 2.4-96.6.6-8.2-.5-16.5-1-24.7-1.7l4.5 4.5c-2-39.4-4-79.1-3-118.6.1-4.8.3-9.6.8-14.4.2-1.8.2-2 .6-3.9.1-.5.2-1 .4-1.4.3-1.1-.5.8.2-.2 3.4-4.7-4.4-9.2-7.7-4.6z" fill="#282828"/><path d="m495.4 434.4c-16.6 4.5-165.3 13-165.3 13" fill="#c3f1ff"/><path d="m334.2 490.3c-23.6 61.4 1 107.4 1 107.4l-1.5 12.1s-28.2-2.1-26.8 13c1.3 15.1 32.7 22.3 50.8 20.3s20.3.7 22-15.4c1.7-16-2.4-32.9 8-43.2s21.5-20 33.2-6.1c11.6 14 4.5 50.3 9.2 60.6s5.7 7.5 24.3 6.2 48.2-1 46.7-11.6c-1.5-10.5-5.6-16.7-14.4-18.7s-12.5-9.2-12.5-9.2 5.8-12.6 7.2-17.8c1.3-5.2 7.9-36 6.4-52.5-1.4-16.5-13.4-61.4-13.4-61.4" fill="#c3f1ff"/><path d="m505.1 324.8s39.2-2.7 38 35.5-34.1 35.4-34.1 35.4" fill="#c3f1ff"/><path d="m295.1 337.2s-39.3 2-33.5 39.8c5.7 37.8 38 31.1 38 31.1" fill="#c3f1ff" stroke="#282828" stroke-miterlimit="10" stroke-width="7"/><ellipse cx="403" cy="366.9" fill="#c3f1ff" rx="111.7" ry="101.3" transform="matrix(.9985 -.05532966 .05532966 .9985 -19.6839 22.8583)"/><path d="m446.1 275.3 1 17.6s-16.5-5.2-36.9-4.9c-10.2.3-10.2.3-10.2.3l-1.3-22.7c0 .1 34.2 3.6 47.4 9.7z" fill="#35d0ba"/><path d="m397.1 436.3s11.2 2.7 11.5 8.5 2.8 14.4-9.8 22.5c41.7-6.4 70.9-10.4 92.8-41.1s20.8-32.5 20.8-32.5 22.1 1.9 27.3-11.7c5.3-13.5-.9-40-15.8-43.8-14.9-3.7-15.7-6.1-15.7-6.1s-15.4-39.8-39.8-48.6c-7.2-3.5-7.6-2.1-7.6-2.1l1 22s33.1 18.9 22.2 71.2c-10.9 52.2-58.4 56.5-86.9 61.7z" fill="#35d0ba"/><path d="m403.9 557.4s-41.8-3-38.9 86.8c8.5 1.9 11.8-5.2 11.8-5.2l4.9-34.3 10-25.5 8.1-5.6z" fill="#35d0ba"/><path d="m496.8 444.1c-9.9 1.7-29.7 1.5-29.7 1.5" fill="#35d0ba"/><path d="m479.8 491.3 2.9 66-3 40.7-3.2 15.1s20.4 6.1 22.3 8.9c6.1 8.9 4.4 18.4-10.9 19.2s-51.6.1-51.6.1l-6.9-41.9s-1-18.2-12.6-26.2c-11.6-8.1-11.5-27.7-11.5-27.7l9.1-15.9s34.2-6.3 39-19-7.5-48.6-7.5-48.6 25.7-3 27.3-3.6" fill="#35d0ba"/><path d="m387.2 479.6c13.8 3.7 12.9 3.8 12.9 3.8l1.8 30.8 4.3 8.5 39.9-17.5-2.5-44.2s-22.4 12.6-40.2 13.6-33.3-1.1-33.3-1.1 2.7 2.2 17.1 6.1z" fill="#35d0ba"/><path d="m426.5 605.3 51.2-2.8-2.7 11.7s26.4-1.5 25.7 15.1-9.2 13.8-9.2 13.8c-11.6.6-49.6 2.7-54.5 3s-8.5-4.5-9.3-17.7c-.7-13.2-1.2-23.1-1.2-23.1z" fill="none" stroke="#282828" stroke-miterlimit="10" stroke-width="7"/><path d="m381.7 604.7-49.8-6.8 1.7 11.9s-26.2-3.6-26.8 13 8 14.5 8 14.5c11.5 1.6 49.2 6.7 54.1 7.4s8.9-3.8 10.7-16.9 2.1-23.1 2.1-23.1z" fill="none" stroke="#282828" stroke-miterlimit="10" stroke-width="7"/><path d="m398 297.3c54.5-3 80.2 12.1 82.7 56.7s-29.3 69.6-75.5 72.1" fill="#fff4f0" stroke="#282828" stroke-miterlimit="10"/><path d="m398 297.3c-54.5 3.7-79.8 22-76.7 66.6s37.6 65.4 83.9 62.2" fill="#fff4f0" stroke="#282828" stroke-miterlimit="10"/><path d="m397.2 297.1c54.5-3 80.2 12.1 82.7 56.7s-29.3 69.6-75.5 72.1" fill="none" stroke="#282828" stroke-miterlimit="10" stroke-width="5"/><path d="m397.2 297.1c-54.5 3.7-79.8 22-76.7 66.6s37.6 65.4 83.9 62.2" fill="none" stroke="#282828" stroke-miterlimit="10" stroke-width="5"/><path d="m505.1 324.8s39.2-2.7 38 35.5-34.1 35.4-34.1 35.4" fill="none" stroke="#252525" stroke-miterlimit="10" stroke-width="7"/><path d="m505.2 324.8s39.2-2.7 38 35.5-34.1 35.4-34.1 35.4" fill="none" stroke="#282828" stroke-miterlimit="10" stroke-width="7"/><path d="m452.9 275s2.3 14.8 1.7 30.6" fill="none" stroke="#000" stroke-miterlimit="10" stroke-width="7"/><path d="m340 281.1s-1.2 13.6.3 30.8" fill="none" stroke="#000" stroke-miterlimit="10" stroke-width="7"/><path d="m443.5 458.9s5.3 40.8.6 46.1c-4.7 5.2-42 18.9-42 18.9" fill="none" stroke="#282828" stroke-miterlimit="10" stroke-width="7"/><path d="m358.4 458.4s-4.3 43.9.7 48.8c5 5 43 16.6 43 16.6" fill="none" stroke="#282828" stroke-miterlimit="10" stroke-width="7"/><path d="m427.8 604.4s2.4-33.3-23-31.9c-1.1-19.8-2.7-48.7-2.7-48.7" fill="none" stroke="#282828" stroke-miterlimit="10" stroke-width="7"/><path d="m379.7 604.6s6.3-31 25.1-32" fill="none" stroke="#282828" stroke-miterlimit="10" stroke-width="7"/><path d="m476.6 602.5s7.6-18 5.8-42.6" fill="none" stroke="#282828" stroke-miterlimit="10" stroke-width="7"/><path d="m359.2 362.9c3.1.1 4.1.2 5.7.9 1.4-2.1 2.2-5 2-8.1-.3-6-3.9-10.7-8-10.5s-7.2 5.3-6.8 11.3c.2 2.8 1 5.3 2.3 7.1 1.1-.4 2.9-.7 4.8-.7z" fill="#282828"/><path d="m325 565.9c3.1 19.9 9.5 31.9 9.5 31.9" fill="none" stroke="#282828" stroke-miterlimit="10" stroke-width="7"/><path d="m438.4 363.2c-2.7 0-3.3.3-4.8.8-1.4-2-2.3-4.9-2.2-8.1.1-6 3.3-10.9 7.2-10.8 3.9 0 7.1 5 7 11 0 2.8-.7 5.3-1.9 7.2-1.3-.2-3.5-.1-5.3-.1z" fill="#282828"/><ellipse cx="350" cy="374.8" fill="#282828" rx="7.9" ry="3.7" transform="matrix(.9985 -.05532966 .05532966 .9985 -20.1997 19.9377)"/><ellipse cx="449.4" cy="376.5" fill="#282828" rx="3.7" ry="7.9" transform="matrix(.04039453 -.9992 .9992 .04039453 55.0056 810.295)"/><path d="m272.8 304.1 6.8 38" fill="none" stroke="#282828" stroke-miterlimit="10" stroke-width="7"/><circle cx="272.6" cy="300.2" fill="#282828" r="11.7"/><path d="m334.9 487.8-6.6-10.3s-32.1 23.6-32.5 33.2 39.1-22.9 39.1-22.9z" fill="#35d0ba"/><ellipse cx="402.6" cy="366" fill="none" rx="111.7" ry="101.3" stroke="#282828" stroke-miterlimit="10" stroke-width="7" transform="matrix(.9985 -.05532966 .05532966 .9985 -19.632 22.8382)"/><path d="m332.5 452s-40.6 25.5-43 83.2c-.6 14.6 19.7 14 19.7 14l5.6-24.3s11.5-19.8 5.2-22.1c6.3 2.2 16.9-17.8 16.9-17.8-7.1 14.8-10.3 26.4-12.4 39.1" fill="#c3f1ff"/><path d="m307.4 549.5s-22.5-7-15.5-19.9 3-14.6 3-14.6l15 20.9z" fill="#35d0ba"/><path d="m331 445.4c-7.9 2.6-14.1 10.7-18.5 17.2-6.5 9.4-11.1 20.1-14.9 30.8-4.2 11.8-8.9 25.1-9.5 37.7-.6 13.8 8.9 21.6 20.9 26.2 4.5 1.7 6.5-5.5 2-7.2-6.1-2.3-12.7-5.7-14.7-12.3-1.6-5.2-.3-11 .9-16.1 3.6-15.2 8.2-30.5 15.4-44.4 3.9-7.6 8.6-15 15-20.7 1.5-1.3 2.6-2.1 4.4-3.2.4-.3.9-.5 1.4-.7s-1.1.4-.3.1c4.4-1.6 2.5-8.9-2.1-7.4z" fill="#282828"/><path d="m475.5 483.4s59.3-17.7 73.9-29.6c8.6-7 30.2-27.7 33.7-41.9 2.4-9.8-12.5-12.7-10.5-21.2 5.2-22.9-7.3-9.3-9.3-8.9-2 .3-11 16.8-11 16.8s-15 .7-11.4 8.2-28.1 31.6-44.7 36.4" fill="#c3f1ff"/><path d="m477.3 483 46.8-14.8 32.5-19.6 14.9-19.7 11.6-19.1s.5 2.3-1.5 0c-2.2-2.5-5.7-5.2-12.2-3.6-4.5 1.1-8 3.3-10.5 6.5-2.4 3.1-8.5 8-9.4 9.2-4.3 6.1-1.6 5.9-18 16s-24 13.2-33.9 15-26.3 5.7-26.3 5.7" fill="#35d0ba"/><path d="m317.9 520.9s8.2-18.9 9.9-23.5" fill="#f87d42"/><path d="m320.5 522.4c3.5-8 7.2-16 10.2-24.2 1.3-3.6-4.5-5.2-5.8-1.6-2.8 7.7-6.3 15.2-9.6 22.8-1.5 3.5 3.6 6.5 5.2 3z" fill="#282828"/><path d="m477.3 483s28.8-7.3 55.2-19.7c26.5-12.4 36.1-26.7 36.1-26.7s-13.4-6.5-31.9-17.1c-11.5 19.9-67.4 27-67.4 27" fill="none" stroke="#282828" stroke-miterlimit="10" stroke-width="7"/><path d="m413.7 480 51.2-17.9s14.4 2.5 15.9 6.4c1.5 4 5.5 96.9 5.5 96.9l-49.1-4.3z" fill="#fff" stroke="#282828" stroke-miterlimit="10" stroke-width="2"/><path d="m333 464.2s11.9-7.5 19-7c9.7 5.8 43.4 21.5 43.4 21.5v91.3l-62.5-9.1v-96.7z" fill="#fff" stroke="#282828" stroke-miterlimit="10" stroke-width="2"/><path d="m480.8 572-62.8 10.2c-4.2 0-7.6-3.4-7.6-7.6v-88.3c0-4.2 3.4-7.6 7.6-7.6l62.8-10.2c4.2 0 7.6 3.4 7.6 7.6v88.3c0 4.2-3.4 7.6-7.6 7.6z" fill="#f87d42"/><path d="m480.4 570.6c-9.8 1.6-19.6 3.2-29.4 4.8-7.1 1.1-14.2 2.3-21.3 3.4-3.7.6-8 2-11.8 1.9-6-.1-6-5.8-6-10.1 0-5.1 0-10.1 0-15.2 0-14.3 0-28.6 0-42.9 0-8.5-.9-17.7 0-26.1.7-6.2 6.9-6.3 11.7-7.1 6.1-1 12.3-2 18.4-3 12.3-2 24.6-4 36.9-6 4.8-.8 7.8 2.4 8 7.2.2 4 0 8.1 0 12.2v47.6 20.1c0 5.1 1.2 12.5-6.1 13.1-1.9.2-1.9 3.2 0 3 12-1.1 9.1-16.2 9.1-24.6 0-16 0-32 0-47.9 0-6.2 0-12.4 0-18.7 0-3 .5-6.7-.7-9.6-2.2-5.3-7.1-5.9-12-5.1-6.4 1-12.7 2.1-19.1 3.1-13.2 2.1-26.4 4.6-39.7 6.4-11.5 1.6-9.7 11.9-9.7 20.7v46.4c0 10-.7 20.3 0 30.4.9 13.8 17.9 7.8 26.2 6.4 14.4-2.3 28.8-4.7 43.2-7 1-.2 1.9-.3 2.9-.5 2.1-.3 1.3-3.2-.6-2.9z" fill="#282828"/><path d="m395.4 582.2-62.4-14.5c-4.2 0-7.6-3.4-7.6-7.6v-88.3c0-4.2 3.4-7.6 7.6-7.6l62.5 14.5c4.2 0 7.6 3.4 7.6 7.6v88.3c0 4.2-3.5 7.6-7.7 7.6z" fill="#f87d42"/><g fill="#282828"><path d="m395.8 580.8c-20.7-4.8-41.5-9.5-62.2-14.4-5.9-1.4-6.8-4.4-6.8-9.4 0-4.8 0-9.6 0-14.4 0-14.6 0-29.1 0-43.7 0-8.8-.9-18.2 0-27 .8-7.9 6.5-6.1 11.4-5 6.1 1.4 12.3 2.8 18.4 4.3 12.2 2.8 24.4 5.8 36.6 8.5.7.2 1.5.3 2.3.5 4.3 1 5.9 3.3 6.1 7.3.2 3.9 0 7.8 0 11.7v48.3 20.1c0 5.1 1.2 12.5-6.1 13.1-1.9.2-1.9 3.2 0 3 12-1.1 9.1-16.2 9.1-24.6 0-16 0-32 0-47.9 0-6.2 0-12.4 0-18.7 0-3 .5-6.7-.7-9.6-2.1-5.2-7.4-5.5-12.1-6.6-6.5-1.5-13-3-19.6-4.5-7.9-1.8-15.9-3.7-23.8-5.5-4.7-1.1-9.6-2.7-14.4-3.3-11.8-1.6-10.2 12.3-10.2 19.7v46.2c0 10.3-.6 20.9 0 31.2.4 6.2 4.6 8.4 10.1 9.5 5.3 1.1 10.6 2.5 15.8 3.7 14.1 3.3 28.3 6.6 42.4 9.8.9.2 1.9.4 2.8.7 2 .3 2.8-2.6.9-3z"/><path d="m413 490c2.5 7.4-14.7 7.4-12.1 0 .5-1.4-1.7-2-2.2-.6-3.7 11 20.2 11 16.5 0-.4-1.4-2.6-.8-2.2.6z"/><path d="m403.4 487.9c2.2-.9 4.5-.9 6.7-.2 1.4.4 2-1.7.6-2.2-2.6-.8-5.4-.8-7.9.2-1.4.5-.8 2.7.6 2.2z"/><path d="m413 497.1c2.5 7.4-14.7 7.4-12.1 0 .5-1.4-1.7-2-2.2-.6-3.7 11 20.2 11 16.5 0-.4-1.4-2.6-.8-2.2.6z"/><path d="m403.4 495c2.2-.9 4.5-.9 6.7-.2 1.4.4 2-1.7.6-2.2-2.6-.8-5.4-.8-7.9.2-1.4.6-.8 2.7.6 2.2z"/><path d="m413 504.3c2.5 7.4-14.7 7.4-12.1 0 .5-1.4-1.7-2-2.2-.6-3.7 11 20.2 11 16.5 0-.4-1.4-2.6-.8-2.2.6z"/><path d="m403.4 502.1c2.2-.9 4.5-.9 6.7-.2 1.4.4 2-1.7.6-2.2-2.6-.8-5.4-.8-7.9.2-1.4.6-.8 2.8.6 2.2z"/><path d="m413 511.4c2.5 7.4-14.7 7.4-12.1 0 .5-1.4-1.7-2-2.2-.6-3.7 11 20.2 11 16.5 0-.4-1.4-2.6-.8-2.2.6z"/><path d="m403.4 509.3c2.2-.9 4.5-.9 6.7-.2 1.4.4 2-1.7.6-2.2-2.6-.8-5.4-.8-7.9.2-1.4.6-.8 2.7.6 2.2z"/><path d="m413 518.5c2.5 7.4-14.7 7.4-12.1 0 .5-1.4-1.7-2-2.2-.6-3.7 11 20.2 11 16.5 0-.4-1.3-2.6-.7-2.2.6z"/><path d="m403.4 516.4c2.2-.9 4.5-.9 6.7-.2 1.4.4 2-1.7.6-2.2-2.6-.8-5.4-.8-7.9.2-1.4.6-.8 2.8.6 2.2z"/><path d="m413 525.7c2.5 7.4-14.7 7.4-12.1 0 .5-1.4-1.7-2-2.2-.6-3.7 11 20.2 11 16.5 0-.4-1.4-2.6-.8-2.2.6z"/><path d="m403.4 523.6c2.2-.9 4.5-.9 6.7-.2 1.4.4 2-1.7.6-2.2-2.6-.8-5.4-.8-7.9.2-1.4.5-.8 2.7.6 2.2z"/><path d="m413 525.7c2.5 7.4-14.7 7.4-12.1 0 .5-1.4-1.7-2-2.2-.6-3.7 11 20.2 11 16.5 0-.4-1.4-2.6-.8-2.2.6z"/><path d="m413 532.8c2.5 7.4-14.7 7.4-12.1 0 .5-1.4-1.7-2-2.2-.6-3.7 11 20.2 11 16.5 0-.4-1.3-2.6-.7-2.2.6z"/><path d="m403.4 530.7c2.2-.9 4.5-.9 6.7-.2 1.4.4 2-1.7.6-2.2-2.6-.8-5.4-.8-7.9.2-1.4.6-.8 2.8.6 2.2z"/><path d="m413 540c2.5 7.4-14.7 7.4-12.1 0 .5-1.4-1.7-2-2.2-.6-3.7 11 20.2 11 16.5 0-.4-1.4-2.6-.8-2.2.6z"/><path d="m403.4 537.9c2.2-.9 4.5-.9 6.7-.2 1.4.4 2-1.7.6-2.2-2.6-.8-5.4-.8-7.9.2-1.4.5-.8 2.7.6 2.2z"/><path d="m413 547.1c2.5 7.4-14.7 7.4-12.1 0 .5-1.4-1.7-2-2.2-.6-3.7 11 20.2 11 16.5 0-.4-1.3-2.6-.8-2.2.6z"/><path d="m403.4 545c2.2-.9 4.5-.9 6.7-.2 1.4.4 2-1.7.6-2.2-2.6-.8-5.4-.8-7.9.2-1.4.6-.8 2.8.6 2.2z"/><path d="m413 554.3c2.5 7.4-14.7 7.4-12.1 0 .5-1.4-1.7-2-2.2-.6-3.7 11 20.2 11 16.5 0-.4-1.4-2.6-.8-2.2.6z"/><path d="m403.4 552.2c2.2-.9 4.5-.9 6.7-.2 1.4.4 2-1.7.6-2.2-2.6-.8-5.4-.8-7.9.2-1.4.5-.8 2.7.6 2.2z"/><path d="m413 554.3c2.5 7.4-14.7 7.4-12.1 0 .5-1.4-1.7-2-2.2-.6-3.7 11 20.2 11 16.5 0-.4-1.4-2.6-.8-2.2.6z"/><path d="m413 561.4c2.5 7.4-14.7 7.4-12.1 0 .5-1.4-1.7-2-2.2-.6-3.7 11 20.2 11 16.5 0-.4-1.3-2.6-.8-2.2.6z"/><path d="m403.4 559.3c2.2-.9 4.5-.9 6.7-.2 1.4.4 2-1.7.6-2.2-2.6-.8-5.4-.8-7.9.2-1.4.6-.8 2.7.6 2.2z"/><path d="m413 568.6c2.5 7.4-14.7 7.4-12.1 0 .5-1.4-1.7-2-2.2-.6-3.7 11 20.2 11 16.5 0-.4-1.4-2.6-.8-2.2.6z"/><path d="m403.4 566.5c2.2-.9 4.5-.9 6.7-.2 1.4.4 2-1.7.6-2.2-2.6-.8-5.4-.8-7.9.2-1.4.5-.8 2.7.6 2.2z"/></g><path d="m501.6 535.1h-6l-3.9 16.3" fill="#c3f1ff"/><path d="m311.9 539.6 1.6 14.4s20.5 13.7 23.4.6-2.8-25.8-2.8-25.8l-22.3 3.5" fill="#c3f1ff"/><path d="m314.9 541.9c4.2-1.2 7.1-1.2 8.9-1 5.2.7 8.5 3.4 14.3 7s3.1.8.6 4.1-.6 11.3-4.7 9.9-16.2-.3-18.4-4c-.5-.8-2.4-4.5-3.8-3.5" fill="#35d0ba"/><path d="m310 538.9c-.5-3.2 1.3-6.4 4.3-7.6 5.7-2.3 13.1-5.2 17.1-4.7 4 .4 6.3 6.7 6.5 11.3.2 3.3 1 9.9.4 16.1-1.9 17.9-26 .7-26 .7z" fill="none" stroke="#282828" stroke-miterlimit="10" stroke-width="7"/><path d="m384.4 395.9c9.4 5 20.7 4.6 30 0 3.5-1.7.4-6.9-3-5.2-7.3 3.6-16.6 3.9-24 0-3.3-1.8-6.4 3.4-3 5.2z" fill="#282828"/><ellipse cx="436.7" cy="363.7" fill="#fff" opacity=".25" rx="17.5" ry="11.1"/><ellipse cx="362.2" cy="361.9" fill="#fff" opacity=".25" rx="17.5" ry="11.1"/><ellipse cx="362.2" cy="361.9" fill="none" rx="17.5" ry="11.1" stroke="#636363" stroke-miterlimit="10" stroke-width="2"/><path d="m422.9 356.9s-11-2.4-23.5-2.4-21.6 2.4-21.6 2.4" fill="none" stroke="#636363" stroke-miterlimit="10" stroke-width="2"/><path d="m565.7 438.9c3.9 0 3.9-6 0-6s-3.9 6 0 6z" fill="#252525"/><path d="m540.8 419.2c1.9-1.9 3.6-3.9 5.2-6 .8-1 .4-2.8-.5-3.6-2.3-2.2-3.1-6.8.3-8.6 1.6-.9 4.1-.2 5.6.6 1.4.7 3.3.4 4.1-1.1 2.7-5.1 5.7-10.3 9.6-14.6 1.5-1.7 4.5-5.7 4.7-1.6.1 2.5-1.2 5.6-2.2 7.9-.7 1.5-.4 3.1 1.1 4.1 5 3.2 11 8.9 11.5 15.1.4 5.8-5.5 10.8-9.4 14.3-.2.2-3.1 2.3-3.1 2.3 0-.1 2.5.9 2.4 1.7.2-1.6-3.1-2.6-4.1-3.1-3.4-1.6-6.7-3.2-10.1-4.8-5.2-2.4-10.3-4.9-15.5-7.3-3.5-1.6-6.5 3.5-3 5.2 7.2 3.4 14.3 6.8 21.5 10.2 1.7.8 3.4 1.8 5.1 2.4.9.3 3.7 2.1.3-1 1.6 1.5 1.9 3.1 4.7 2.5 4-.8 7.7-5.4 10.3-8.2 4.1-4.3 7.5-9 6.8-15.2-.9-8.1-7.8-15-14.3-19.3.4 1.4.7 2.7 1.1 4.1 1.7-3.7 3.3-8 3-12.2-.3-4.5-4.1-7.9-8.6-6.3s-7.8 6.6-10.5 10.4c-2.3 3.3-4.4 6.8-6.3 10.4 1.4-.4 2.7-.7 4.1-1.1-4.5-2.3-10.4-2.7-14 1.3-4.2 4.6-3.5 11.9.9 16.1-.2-1.2-.3-2.4-.5-3.6-1.3 1.7-2.7 3.3-4.2 4.8-3 2.7 1.3 7 4 4.2z" fill="#252525"/><ellipse cx="436.8" cy="363.7" fill="none" opacity=".25" rx="17.5" ry="11.1" stroke="#636363" stroke-miterlimit="10" stroke-width="2"/><ellipse cx="436.8" cy="363.7" fill="none" rx="17.5" ry="11.1" stroke="#636363" stroke-miterlimit="10" stroke-width="2"/></svg>