<?xml version="1.0" encoding="utf-8"?>
<!-- Generator: Adobe Illustrator 22.1.0, SVG Export Plug-In . SVG Version: 6.00 Build 0)  -->
<svg version="1.1" id="Calque_1" xmlns="http://www.w3.org/2000/svg" xmlns:xlink="http://www.w3.org/1999/xlink" x="0px" y="0px"
	 viewBox="0 0 758.4 833.8" style="enable-background:new 0 0 758.4 833.8;" xml:space="preserve">
<style type="text/css">
	.st0{fill:#35D0BA;stroke:#282828;stroke-miterlimit:10;}
	.st1{fill:#C3F1FF;stroke:#282828;stroke-width:7;stroke-miterlimit:10;}
	.st2{fill:none;stroke:#282828;stroke-width:7;stroke-miterlimit:10;}
	.st3{fill:#C3F1FF;stroke:#282828;stroke-miterlimit:10;}
	.st4{fill:#35D0BA;}
	.st5{fill:#FFF4F0;stroke:#282828;stroke-miterlimit:10;}
	.st6{fill:none;stroke:#282828;stroke-width:5;stroke-miterlimit:10;}
	.st7{fill:#282828;}
	.st8{fill:none;stroke:#282828;stroke-miterlimit:10;}
	.st9{fill:none;stroke:#282828;stroke-width:2;stroke-miterlimit:10;}
	.st10{fill:#C3F1FF;}
</style>
<path class="st0" d="M266.3,423.9L244,468.6c0.9,7.3,116.1,105.1,124.4,105.8l22.3-44.8"/>
<path class="st0" d="M368.4,574.4c12.1,3.1,100.5-69.9,100.5-69.9l22.3-44.8l-108.3,68.5"/>
<path class="st1" d="M390.7,529.6c0,0,100.7-50.3,102.4-76.5s-111-112.8-122.8-104.6c-11.7,8.3-105.8,65-105.7,79.7
	C264.7,442.9,370.6,530.1,390.7,529.6z"/>
<path class="st2" d="M266.3,423.9L244,468.6c0.9,7.3,116.1,105.1,124.4,105.8l22.3-44.8"/>
<path class="st2" d="M491.2,459.7l-22.3,44.8c0,0-88.4,73-100.5,69.9"/>
<path class="st3" d="M274.5,381.6l17.1-48.4l-12-0.7c0,0,8.8-25-7.3-28.9c-16.1-4-15.8,4.9-15.8,4.9c-3.9,10.9-16.5,46.8-18.2,51.5
	s1.9,9.5,14.4,13.9C265.1,378.3,274.5,381.6,274.5,381.6z"/>
<path class="st4" d="M274.7,371.3c0,0-19.1-8-20.3-15.2c-1.2-7.2,1.1-43.9,1.1-43.9s-23.6,46.8-17.2,52s36.8,16.8,36.8,16.8
	L274.7,371.3z"/>
<path class="st3" d="M382.4,289.7l49.9-11.8l-5.9-10.5c0,0,25.8-6.1,20.4-21.8c-5.4-15.7-12.7-10.6-12.7-10.6
	c-11.3,2.7-48.3,11.4-53.1,12.5c-4.8,1.1-6.9,6.7-3.9,19.6C380.2,280,382.4,289.7,382.4,289.7z"/>
<path class="st4" d="M412.6,281.4c0,0-12.4-15.1-6.5-23.9c5.8-8.8,17.3-18.3,17.3-18.3s-43.4,2.2-44.9,9.6
	c-1.5,7.4,5.7,40.5,5.7,40.5L412.6,281.4z"/>
<path class="st3" d="M297.8,508.5c5.5-9.7,25.1-22.4,25.1-22.4c-15.5-9.8-30.2-23.4-35.4-41.6c-5.8-20.1,14.2-48.4,10.9-57.6
	c-3.3-9.2-21.8-9.9-21.8-9.9l14.1-41.6c0,0,28.2,6.1,41,13.9s6.7,33.7,11.4,32.5c4.7-1.2,22.7-13,27.6-20.9
	c5.8-9.5,11.4-19.3,13.7-34.1c3.5-22,1.3-41.2,1.3-41.2l39.4-6.1c0,0,2.9,22.1-2.1,47.1c-4.3,21.6-12.7,28.5-13.7,33.7
	c-1.6,8,2.3,22.6,18.8,37.9l5-7.4c0,0,14.1-20,17.2-30.6c3.1-10.6,12.4-41.3,12.4-41.3l24.4-0.2c0,0,0.4,13-5.5,38.9
	c-6,25.8-31.1,57.5-31.1,57.5l-68.3,88c0,0-48.5,18.9-53.6,21.7c-17.9,9.7-53.7,46.2-53.7,46.2l-18.3-28.4L297.8,508.5z"/>
<path class="st4" d="M278.6,528.1c0,0,14.5-6.2,33.4-21.9c19-15.8,32.6-28.3,32.6-28.3s-48.2-13.7-48.3-45.8
	c-0.1-32.2,2-45.1,2-45.1l-12,50.1c0,0,2.1,21,15.5,32.4c13.4,11.5,19.4,17.8,19.4,17.8S297.6,506.1,278.6,528.1z"/>
<path class="st3" d="M483.6,328.8c0,0,8.4-20.6,12.9-30.8c4.6-10.2,4.1-25.9-1.6-25.5c-5.6,0.4-20-6.7-26,6.4
	c-6.1,13.1-3.1,54.5-3.1,54.5L483.6,328.8z"/>
<path class="st4" d="M387.6,450.1c0,0,21.7-26.4,40.5-34.5s45.4-86.9,45.4-86.9s-5.9-16.6,2.8-24.8s9.5-13.7,9.9-19.7
	c0.4-6-2.5-13.7-2.5-13.7s-12.6,1.2-18.6,14.5s-6.8,6.6-6.8,6.6s-9.2,0.9-6.8,6.1c2.5,5.2,15.4,11.6,8.9,28.5s-10.8,51-28.7,66.5
	c-3.9,7.6-6.6,2.4-6.6,2.4s-18.6-16.3-15.9-28.4c2.7-12.1,5.4-43.4,6.3-48.8c0.6-3.5,0.5-14.7,0.5-22.1c0-4.1-1.6-14.8-1.6-14.8
	l-27,9.8c0,0-1.1,54.2-14.4,70.6C359.5,378,360,373,360,373l23.8,29.8c0,0-12.9,26.3-12.8,32.1C371.2,440.8,387.6,450.1,387.6,450.1
	z"/>
<path class="st3" d="M559.6,460.6c0,0,23.9-22.2-5.7-46.3c-29.6-24.1-45.2-3.1-45.2-3.1"/>
<ellipse transform="matrix(0.696 -0.7181 0.7181 0.696 -222.587 492.9131)" class="st3" cx="470.8" cy="509.3" rx="104.1" ry="94.8"/>
<path class="st4" d="M562.4,536.7c0,0-10.2-23-15.8-18c-0.8,2.5-6.4,15.1-19.9,30.8c-13.5,15.7-21.5,19.8-21.5,19.8l15.1,21.5
	C520.2,590.7,554.1,562.1,562.4,536.7z"/>
<path class="st4" d="M411.5,475.9c0,0,5.4-10.1,1.5-13.9s-8.4-10.9-22.4-6.4c32-27.5,54.1-47,90.2-44.8s32.2,4.4,32.2,4.4
	s6.6-13.1,19.6-8.8c13.1,4.3,32.3,16.8,25.2,30.3c-7.1,13.5,0.6,19.1,0.6,19.1s18.1,35.9,8.3,59.7c-2.3,7.5,0.4,7.4,0.4,7.4
	l-13.3-21.7c0,0,2.8-29.3-41.4-53S433.9,457.6,411.5,475.9z"/>
<path class="st2" d="M275.1,381l17.1-48.4l-12-0.7c0,0,8.8-25-7.3-28.9c-16.1-4-15.8,4.9-15.8,4.9c-3.9,10.9-16.5,46.8-18.2,51.5
	c-1.7,4.7,1.9,9.5,14.4,13.9C265.7,377.7,275.1,381,275.1,381z"/>
<path class="st2" d="M382.3,287.6l48.5-7.7l-5-10.9c0,0,25.5-4.1,21.3-20.1s-11.6-11.6-11.6-11.6c-11.2,1.8-47.9,7.6-52.7,8.4
	c-4.8,0.8-7.2,6.2-5.1,19.2C379.7,278,382.3,287.6,382.3,287.6z"/>
<ellipse transform="matrix(0.696 -0.7181 0.7181 0.696 -222.9445 493.5289)" class="st2" cx="471.4" cy="510.1" rx="103.9" ry="94.8"/>
<g>
	<g>
		<path class="st5" d="M519.7,549.1c31.5-32.1,33.9-58.2,1.7-89.1s-68-27.5-94.7-0.2"/>
		<path class="st5" d="M519.7,549.1c-32,31.6-59.4,35.4-91.2,4.2c-31.9-31.3-29-66.7-1.8-93.5"/>
	</g>
</g>
<g>
	<g>
		<path class="st6" d="M519.6,549.5c31.3-32,33.7-57.9,1.4-88.9s-67.9-27.6-94.5-0.5"/>
		<path class="st6" d="M519.6,549.5c-31.9,31.5-59.1,35.2-91,3.9c-31.9-31.3-29.1-66.6-2.1-93.2"/>
	</g>
</g>
<path class="st2" d="M559.6,460.5c0,0,21.6-21.6-7.5-46.2s-39.9-0.7-39.9-0.7"/>
<ellipse transform="matrix(0.696 -0.7181 0.7181 0.696 -240.0307 478.6661)" class="st7" cx="445.3" cy="522.8" rx="7.9" ry="3.7"/>
<ellipse transform="matrix(0.6478 -0.7618 0.7618 0.6478 -183.8289 545.5795)" class="st7" cx="498.1" cy="471.6" rx="7.9" ry="3.7"/>
<path class="st8" d="M396.9,621.2"/>
<line class="st2" x1="423.9" y1="629.2" x2="399.7" y2="599.1"/>
<circle class="st7" cx="430.5" cy="636.9" r="11.7"/>
<path class="st9" d="M387.3,323.5"/>
<path class="st10" d="M722,355.3"/>
<g>
	<g>
		<path class="st7" d="M461.1,502.2c-0.1,0.9,0.3-1.2,0.4-1.9c0.5-1.8,1.1-3.5,2-5.2c3-5.7,7.9-9.2,14-10.7c3.7-0.9,2.2-6.7-1.6-5.8
			c-11.2,2.8-19.6,12.1-20.9,23.6C454.7,506,460.7,506,461.1,502.2L461.1,502.2z"/>
	</g>
</g>
<path class="st2" d="M493.7,604.6c0,0,7.3-19.5-7.4-32.1"/>
<path class="st1" d="M385.5,545.4c0,0-28.3,22.2-3.8,51.4c24.6,29.3,54.3-1.6,54.3-1.6S411.1,558.1,385.5,545.4z"/>
<path class="st2" d="M544.4,504.2c0,0,13.4,7.8,20.9,29.2"/>
<path class="st2" d="M450.4,415c0,0,25.2-31.7,31.1-57.5c6-25.8,5.5-38.9,5.5-38.9l-24.4,0.2c0,0-9.2,30.7-12.4,41.3
	c-3.1,10.6-17.2,30.6-17.2,30.6l-5,7.4c-16.5-15.3-20.4-29.9-18.8-37.9c1-5.2,9.4-12.1,13.7-33.7c5-25,2.1-47.1,2.1-47.1l-39.4,6.1
	c0,0,2.2,19.2-1.3,41.2c-2.3,14.8-7.9,24.5-13.7,34.1c-4.8,8-22.8,19.7-27.6,20.9c-4.7,1.2,1.4-24.7-11.4-32.5s-41-13.9-41-13.9
	L276.6,377c0,0,18.6,0.6,21.8,9.9c3.3,9.2-16.8,37.5-10.9,57.6c5.3,18.1,19.9,31.8,35.4,41.6"/>
<path class="st2" d="M353.4,468.1"/>
<path class="st2" d="M462.9,291.9c1.2-5.7,3.4-11,7.4-14.4c23.9-20.3,47.1,5.2,15.5,39.6"/>
<path class="st2" d="M462.6,318.8c0,0-0.7-4.3-0.9-10.2"/>
<path class="st2" d="M465.7,310.6c0,0-19.7-8.2-12.8-16.3c7-8.1,18.1,5.3,18.1,5.3"/>
<path class="st3" d="M248.1,545.6c0,0-36.6,15.4-23.7,31.1c12.9,15.6,28.3,22.7,37.1,9.6c8.7-13.2,6.4-10.2,6.4-10.2
	s-2.2,7.7,1.7,8.9c3.9,1.2,7.1,2.2,10.9-13.2c2-7.6,4.1-11.6,4.1-11.6l-19.6-20.6L248.1,545.6z"/>
<path class="st4" d="M225.9,555.9l-3,20.7c0,0,5.5-1.4,10.9-4.1s8.3-6.4,11.9-9.3c3.6-3,10.1-4.2,10.1-4.2l7.7-6.5
	c0,0,3.8-0.8,10.8-10.4c7-9.5,19.6-29.1,19.6-29.1s-38,29.9-45.7,32.9C240.6,548.9,225.9,555.9,225.9,555.9z"/>
<path class="st2" d="M249,545.9c0,0-35.9,16-24.1,30.7c11.8,14.7,26.5,21,35.5,8.1c8.9-13,6.6-10,6.6-10s-2.4,7.5,1.3,8.5
	c3.7,1,6.8,1.9,11.1-13.1c2.3-7.4,4.4-11.3,4.4-11.3l-18.2-19.2L249,545.9z"/>
<path class="st2" d="M354.6,378.9l23.8,25.9c6.3-1.5,23.9-11.3,28.2-10.8c4.3,0.5,29.4,27,29.4,27"/>
<path class="st2" d="M388.9,462.4c0,0-26.1-18.2-26.6-24.4c-0.5-6.2,16.1-33.1,16.1-33.1"/>
<path class="st2" d="M372.9,505.2c-18.6,6.1-53.1,23.2-55.5,26.7c-4.6,6.7-31.1,30.3-31.1,30.3l-23.6-27.1c0,0,22.6-17.9,37.8-29.7
	c15.2-11.9,20.9-17.5,31.7-22.4"/>
<ellipse transform="matrix(0.6478 -0.7618 0.7618 0.6478 -191.014 558.962)" class="st7" cx="509" cy="486.1" rx="6.7" ry="8.9"/>
<ellipse transform="matrix(0.7071 -0.7071 0.7071 0.7071 -241.3973 483.1706)" class="st7" cx="462.5" cy="533" rx="6.7" ry="8.9"/>
</svg>
