<svg enable-background="new 0 0 310.3 310.3" viewBox="0 0 310.3 310.3" xmlns="http://www.w3.org/2000/svg"><circle cx="155.7" cy="155.7" fill="#00136c" r="150"/><circle cx="153.7" cy="155.7" fill="#010e3f" r="106.1"/><path d="m155.7 241c-16 0-19.2 0-23.1 0-13.4 0-14.1 11.3-14.1 11.3h74.3s-.6-11.3-14.1-11.3c-3.8 0-7 0-23 0" fill="#f87d42" stroke="#000" stroke-miterlimit="10" stroke-width="5"/><path d="m155.7 225.2c-51.6.2-70.5-45.9-70.5-66.6v-74.8s-.6-2.7 2.3-7.8 11-5.2 11-5.2h57.2" fill="#f87d42"/><path d="m155.7 225.2c51.6.2 70.5-45.9 70.5-66.6v-74.8s.6-2.7-2.3-7.8-11-5.2-11-5.2h-57.2" fill="#f87d42"/><path d="m98.4 70.8h57.3" fill="none"/><path d="m85.2 155.7s24.4 46.4 70.5 46.4 70.5-46.4 70.5-46.4-2.4 70.1-73.8 69.6c-62.2-.1-67.2-69.6-67.2-69.6z" fill="#cc6237"/><path d="m85.2 101.5s-9.2.1-21.3.1c0 0-7.5-.3-12.9 5.5-3.2 3.4-3.4 6.8-3.4 10.1s0 20.5 0 25.2c0 33.6 25.1 48.3 48.3 51.7l-5.3-10.3-4-10.2c-20.3-7.4-22.4-25-22.4-34.4s0-19.7 0-19.7h20.9z" fill="#f87d42" stroke="#000" stroke-miterlimit="10" stroke-width="5"/><path d="m227 102.3s9.2.2 21.3.4c0 0 7.5-.2 12.8 5.6 3.2 3.5 3.3 6.9 3.3 10.1s-.2 20.5-.3 25.2c-.4 33.6-25.6 48-48.9 51.1l5.4-10.3 4.1-10.2c20.4-7.1 22.7-24.8 22.8-34.1.1-9.4.2-19.7.2-19.7l-20.9-.2z" fill="#f87d42" stroke="#000" stroke-miterlimit="10" stroke-width="5"/><path d="m172.2 223.6v16.4h-33.1v-16.5s9.2 3.4 15.7 3.3 17.4-3.2 17.4-3.2z" fill="#f87d42"/><path d="m155.7 252.4c-21.3 0-25.6 0-30.7 0-17.9 0-18.7 13.6-18.7 15.1s0 10.2 0 10.2h49.3" fill="#f87d42"/><path d="m155.7 252.4h30.7c17.9 0 18.7 13.6 18.7 15.1s0 10.2 0 10.2h-49.3" fill="#f87d42"/><path d="m106.3 268.5h98.7v6.9h-98.7z" fill="#cc6237"/><path d="m139.1 230.4s5.7 2.7 16.5 2.5c10.9-.2 16.5-2.5 16.5-2.5v-4.2l-32.1-.9z" fill="#cc6237"/><path d="m155.7 226.8c-51.6.2-70.5-46.4-70.5-67.3v-75.6s-.6-2.7 2.3-7.9 11-5.2 11-5.2h57.2" fill="none" stroke="#140609" stroke-miterlimit="10" stroke-width="5"/><path d="m155.7 226.8c51.6.2 70.5-46.4 70.5-67.3v-75.6s.6-2.7-2.3-7.9-11-5.2-11-5.2h-57.2" fill="none" stroke="#140609" stroke-miterlimit="10" stroke-width="5"/><path d="m98.4 70.8h57.3" fill="none" stroke="#140609" stroke-miterlimit="10" stroke-width="5"/><path d="m139.1 224.7v16.4h33.1v-16.4" fill="none" stroke="#140609" stroke-miterlimit="10" stroke-width="5"/><path d="m155.7 252.4c-21.3 0-25.6 0-30.7 0-17.9 0-18.7 13.6-18.7 15.1s0 10.2 0 10.2h49.3" fill="none" stroke="#000" stroke-miterlimit="10" stroke-width="5"/><path d="m155.7 252.4h30.7c17.9 0 18.7 13.6 18.7 15.1s0 10.2 0 10.2h-49.3" fill="none" stroke="#000" stroke-miterlimit="10" stroke-width="5"/><g fill="#fff"><path d="m135.9 84.7h67.4c3.9 0 3.9-6 0-6-22.5 0-45 0-67.4 0-3.8 0-3.8 6 0 6z"/><path d="m133.3 264.9h40.9c3.9 0 3.9-6 0-6-13.6 0-27.2 0-40.9 0-3.9 0-3.9 6 0 6z"/><path d="m196.8 96.5h13.1c3.9 0 3.9-6 0-6-4.4 0-8.8 0-13.1 0-3.9 0-3.9 6 0 6z"/><path d="m242 114.3h10.7c3.9 0 3.9-6 0-6-3.6 0-7.1 0-10.7 0-3.8 0-3.9 6 0 6z"/><path d="m221.5 54.4h20.6c3.9 0 3.9-6 0-6-6.9 0-13.7 0-20.6 0-3.9 0-3.9 6 0 6z"/><path d="m234.7 60.3c0-5.9 0-11.8 0-17.8 0-3.9-6-3.9-6 0v17.8c0 3.8 6 3.8 6 0z"/><path d="m245 70.8c4.1-1.1 7.9-4.2 8-8.7 0-1.6-1.4-3-3-3-1.7 0-3 1.4-3 3 0 .8.2-.5 0 .2-.1.2-.1.3-.1.5.2-.6-.1 0-.1.1-.2.5.2-.2 0 .1-.3.3-.5.6-.8.8s.4-.3 0 0c-.2.1-.4.2-.6.4-.3.2-.6.3-.9.5-.7.4.4-.1-.2.1-.3.1-.5.2-.8.3-3.8.9-2.2 6.7 1.5 5.7z"/><path d="m247.2 62.8c1.1 4.1 4.2 7.9 8.7 8 1.6 0 3-1.4 3-3 0-1.7-1.4-3-3-3-.8 0 .5.2-.2 0-.2-.1-.3-.1-.5-.1.6.2 0-.1-.1-.1-.5-.2.2.2-.1 0-.3-.3-.6-.5-.8-.8s.3.4 0 0c-.1-.2-.2-.4-.4-.6-.2-.3-.3-.6-.5-.9-.4-.7.1.4-.1-.2-.1-.3-.2-.5-.3-.8-1-3.8-6.8-2.2-5.7 1.5z"/><path d="m255.1 65c-4.1 1.1-7.9 4.2-8 8.7 0 1.6 1.4 3 3 3 1.7 0 3-1.4 3-3 0-.8-.2.5 0-.2.1-.2.1-.3.1-.5-.2.6.1 0 .1-.1.2-.5-.2.2 0-.1.3-.3.5-.6.8-.8s-.4.3 0 0c.2-.1.4-.2.6-.4.3-.2.6-.3.9-.5.7-.4-.4.1.2-.1.3-.1.5-.2.8-.3 3.8-1 2.2-6.8-1.5-5.7z"/><path d="m253 72.9c-1.1-4.1-4.2-7.9-8.7-8-1.6 0-3 1.4-3 3 0 1.7 1.4 3 3 3 .8 0-.5-.2.2 0 .2.1.3.1.5.1-.6-.2 0 .1.1.1.5.2-.2-.2.1 0 .3.3.6.5.8.8s-.3-.4 0 0c.1.2.2.4.4.6.2.3.3.6.5.9.4.7-.1-.4.1.2.1.3.2.5.3.8.9 3.8 6.7 2.3 5.7-1.5z"/></g><path d="m116.7 152.8s32.2 45.2 38.9 45.6c6.8.3 37.9-45.6 37.9-45.6z" fill="#cc6237"/><path d="m155.2 187.7-36.7-37.3 11.9-20.1h46.5l14 20.6z" fill="#001c91"/><path d="m130.4 1082.7-13.9 19.1c-.7 1-.6 2.4.2 3.3l36.5 40c1 1.1 2.9 1.1 3.9 0l36.5-40c.8-.9.9-2.3.2-3.3l-13.9-19.1c-.5-.7-1.3-1.1-2.1-1.1h-45.2c-.9 0-1.7.5-2.2 1.1zm6 4.2h13.3l-9 11zm24.3 0h13.3l-4.3 11zm-5.6 1.5 10.2 12.4h-20.3zm-23.2 1.2 4.3 11.1h-12.4zm46.5 0 8.1 11.1h-12.4zm-53.8 16.4h13.6l10.1 26zm19.2 0h22.7l-11.4 29.3zm28.3 0h13.6l-23.7 25.9z" transform="translate(0 -952.36218)"/><path d="m148.3 160.5c1 0 1.1-.4 1.1-.9v-.8c0-.5-.2-.9-1.1-.9h-5.1c-.8 0-1.1-.3-1.1-1.1v-3.2c0-.8.3-1.1 1.1-1.1h3.1c1 0 1.1-.4 1.1-.9v-.4c0-.5-.2-.9-1.1-.9h-5.6c-.8 0-1.1-.3-1.1-1.1v-3.6c0-.8.3-1.1 1.1-1.1h8.4c3.3 0 4.9 1.6 4.9 4.3v1.7c0 1.5-.5 2.7-1.8 3.2 2.9.3 3.8 1.7 3.8 4.4v3c0 3.1-2 5-5.8 5h-9.5c-.8 0-1.1-.3-1.1-1.1v-3.5c0-.8.3-1.1 1.1-1.1h7.6z"/><path d="m168.3 166.6c-7.4 0-9.2-2.5-9.2-6.1v-10.2c0-3.7 1.8-6.1 9.2-6.1s9.1 2.5 9.1 6.1v10.2c0 3.7-1.8 6.1-9.1 6.1zm0-5.8c2.1 0 2.4-.6 2.4-1.4v-8.1c0-.8-.3-1.4-2.4-1.4-2 0-2.4.6-2.4 1.4v8.1c0 .8.3 1.4 2.4 1.4z"/><path d="m146 158c1 0 1.1-.4 1.1-.9v-.8c0-.5-.2-.9-1.1-.9h-5.1c-.8 0-1.1-.3-1.1-1.1v-3.2c0-.8.3-1.1 1.1-1.1h3.1c1 0 1.1-.4 1.1-.9v-.4c0-.5-.2-.9-1.1-.9h-5.6c-.8 0-1.1-.3-1.1-1.1v-3.6c0-.8.3-1.1 1.1-1.1h8.4c3.3 0 4.9 1.6 4.9 4.3v1.7c0 1.5-.5 2.7-1.8 3.2 2.9.3 3.8 1.7 3.8 4.4v3c0 3.1-2 5-5.8 5h-9.5c-.8 0-1.1-.3-1.1-1.1v-3.5c0-.8.3-1.1 1.1-1.1h7.6z" fill="#fff"/><path d="m165.9 164.1c-7.4 0-9.2-2.5-9.2-6.1v-10.2c0-3.7 1.8-6.1 9.2-6.1s9.1 2.5 9.1 6.1v10.2c.1 3.6-1.7 6.1-9.1 6.1zm0-5.8c2.1 0 2.4-.6 2.4-1.4v-8.1c0-.8-.3-1.4-2.4-1.4-2 0-2.4.6-2.4 1.4v8.1c0 .8.4 1.4 2.4 1.4z" fill="#fff"/></svg>