<?xml version="1.0" encoding="utf-8"?>
<!-- Generator: Adobe Illustrator 22.1.0, SVG Export Plug-In . SVG Version: 6.00 Build 0)  -->
<svg version="1.1" id="Calque_1" xmlns="http://www.w3.org/2000/svg" xmlns:xlink="http://www.w3.org/1999/xlink" x="0px" y="0px"
	 viewBox="0 0 1320 780" style="enable-background:new 0 0 1320 780;" xml:space="preserve">
<style type="text/css">
	.st0{fill:none;stroke:#FFFFFF;stroke-miterlimit:10;}
	.st1{fill:#C3F1FF;}
	.st2{fill:#FFFFFF;}
	.st3{opacity:0.2;fill:none;stroke:#FFC5C5;stroke-width:2;stroke-miterlimit:10;}
	.st4{opacity:0.2;fill:none;stroke:#000000;stroke-miterlimit:10;}
	.st5{fill:none;stroke:#000000;stroke-width:3;stroke-miterlimit:10;}
</style>
<path class="st0" d="M669.4,0.5"/>
<path class="st1" d="M681.3,773.5h581.3c6.6,0,12-5.4,12-12v-749c0-6.6-5.4-12-12-12H681.3L681.3,773.5z"/>
<path class="st1" d="M669.3,773.5H90.5c-6.6,0-12-5.4-12-12v-749c0-6.6,5.4-12,12-12h578.9L669.3,773.5z"/>
<rect x="94.5" y="20.5" class="st2" width="575" height="729"/>
<rect x="681.5" y="20.5" class="st2" width="575" height="729"/>
<line class="st3" x1="215.5" y1="60.5" x2="215.5" y2="731.5"/>
<line class="st4" x1="158.5" y1="81.5" x2="592.5" y2="81.5"/>
<line class="st4" x1="159" y1="121" x2="593" y2="121"/>
<line class="st4" x1="158.5" y1="160.5" x2="592.5" y2="160.5"/>
<line class="st4" x1="159" y1="200" x2="593" y2="200"/>
<line class="st4" x1="158.5" y1="239.5" x2="592.5" y2="239.5"/>
<line class="st4" x1="159" y1="279" x2="593" y2="279"/>
<line class="st4" x1="158.5" y1="318.5" x2="592.5" y2="318.5"/>
<line class="st4" x1="159" y1="358" x2="593" y2="358"/>
<line class="st4" x1="158.5" y1="397.5" x2="592.5" y2="397.5"/>
<line class="st4" x1="159" y1="437" x2="593" y2="437"/>
<line class="st4" x1="158.5" y1="476.5" x2="592.5" y2="476.5"/>
<line class="st4" x1="159" y1="516" x2="593" y2="516"/>
<line class="st4" x1="158.5" y1="555.5" x2="592.5" y2="555.5"/>
<line class="st4" x1="159" y1="595" x2="593" y2="595"/>
<line class="st4" x1="158.5" y1="634.5" x2="592.5" y2="634.5"/>
<line class="st4" x1="159" y1="674" x2="593" y2="674"/>
<line class="st4" x1="159" y1="714" x2="593" y2="714"/>
<line class="st3" x1="829.5" y1="60.5" x2="829.5" y2="731.5"/>
<line class="st4" x1="772.5" y1="81.5" x2="1206.5" y2="81.5"/>
<line class="st4" x1="773" y1="121" x2="1207" y2="121"/>
<line class="st4" x1="772.5" y1="160.5" x2="1206.5" y2="160.5"/>
<line class="st4" x1="773" y1="200" x2="1207" y2="200"/>
<line class="st4" x1="772.5" y1="239.5" x2="1206.5" y2="239.5"/>
<line class="st4" x1="773" y1="279" x2="1207" y2="279"/>
<line class="st4" x1="772.5" y1="318.5" x2="1206.5" y2="318.5"/>
<line class="st4" x1="773" y1="358" x2="1207" y2="358"/>
<line class="st4" x1="772.5" y1="397.5" x2="1206.5" y2="397.5"/>
<line class="st4" x1="773" y1="437" x2="1207" y2="437"/>
<line class="st4" x1="772.5" y1="476.5" x2="1206.5" y2="476.5"/>
<line class="st4" x1="773" y1="516" x2="1207" y2="516"/>
<line class="st4" x1="772.5" y1="555.5" x2="1206.5" y2="555.5"/>
<line class="st4" x1="773" y1="595" x2="1207" y2="595"/>
<line class="st4" x1="772.5" y1="634.5" x2="1206.5" y2="634.5"/>
<line class="st4" x1="773" y1="674" x2="1207" y2="674"/>
<line class="st4" x1="773" y1="714" x2="1207" y2="714"/>
<g>
	<rect x="630" y="40" width="19" height="19"/>
</g>
<g>
	<rect x="701" y="40" width="19" height="19"/>
</g>
<g>
	<rect x="630" y="80" width="19" height="19"/>
</g>
<g>
	<rect x="701" y="80" width="19" height="19"/>
</g>
<g>
	<rect x="630" y="120" width="19" height="19"/>
</g>
<g>
	<rect x="701" y="120" width="19" height="19"/>
</g>
<g>
	<rect x="630" y="160" width="19" height="19"/>
</g>
<g>
	<rect x="701" y="160" width="19" height="19"/>
</g>
<g>
	<rect x="630" y="200" width="19" height="19"/>
</g>
<g>
	<rect x="701" y="200" width="19" height="19"/>
</g>
<g>
	<rect x="630" y="240" width="19" height="19"/>
</g>
<g>
	<rect x="701" y="240" width="19" height="19"/>
</g>
<g>
	<rect x="630" y="277" width="19" height="19"/>
</g>
<g>
	<rect x="701" y="277" width="19" height="19"/>
</g>
<g>
	<rect x="630" y="317" width="19" height="19"/>
</g>
<g>
	<rect x="701" y="317" width="19" height="19"/>
</g>
<g>
	<rect x="630" y="357" width="19" height="19"/>
</g>
<g>
	<rect x="701" y="357" width="19" height="19"/>
</g>
<g>
	<rect x="630" y="397" width="19" height="19"/>
</g>
<g>
	<rect x="701" y="397" width="19" height="19"/>
</g>
<g>
	<rect x="630" y="437" width="19" height="19"/>
</g>
<g>
	<rect x="701" y="437" width="19" height="19"/>
</g>
<g>
	<rect x="630" y="477" width="19" height="19"/>
</g>
<g>
	<rect x="701" y="477" width="19" height="19"/>
</g>
<g>
	<rect x="630" y="512" width="19" height="19"/>
</g>
<g>
	<rect x="701" y="512" width="19" height="19"/>
</g>
<g>
	<rect x="630" y="549" width="19" height="19"/>
</g>
<g>
	<rect x="701" y="549" width="19" height="19"/>
</g>
<g>
	<rect x="630" y="589" width="19" height="19"/>
</g>
<g>
	<rect x="701" y="589" width="19" height="19"/>
</g>
<g>
	<rect x="630" y="629" width="19" height="19"/>
</g>
<g>
	<rect x="701" y="629" width="19" height="19"/>
</g>
<g>
	<rect x="630" y="669" width="19" height="19"/>
</g>
<g>
	<rect x="701" y="669" width="19" height="19"/>
</g>
<g>
	<rect x="630" y="709" width="19" height="19"/>
</g>
<g>
	<rect x="701" y="709" width="19" height="19"/>
</g>
<line class="st5" x1="649" y1="45.5" x2="703" y2="45.5"/>
<line class="st5" x1="649" y1="53.5" x2="703" y2="53.5"/>
<line class="st5" x1="649" y1="85.5" x2="703" y2="85.5"/>
<line class="st5" x1="649" y1="93.5" x2="703" y2="93.5"/>
<line class="st5" x1="649" y1="124.5" x2="703" y2="124.5"/>
<line class="st5" x1="649" y1="132.5" x2="703" y2="132.5"/>
<line class="st5" x1="649" y1="164.5" x2="703" y2="164.5"/>
<line class="st5" x1="649" y1="172.5" x2="703" y2="172.5"/>
<line class="st5" x1="649" y1="204.5" x2="703" y2="204.5"/>
<line class="st5" x1="649" y1="212.5" x2="703" y2="212.5"/>
<line class="st5" x1="649" y1="243.5" x2="703" y2="243.5"/>
<line class="st5" x1="649" y1="251.5" x2="703" y2="251.5"/>
<line class="st5" x1="649" y1="282.5" x2="703" y2="282.5"/>
<line class="st5" x1="649" y1="290.5" x2="703" y2="290.5"/>
<line class="st5" x1="649" y1="322.5" x2="703" y2="322.5"/>
<line class="st5" x1="649" y1="330.5" x2="703" y2="330.5"/>
<line class="st5" x1="649" y1="361.5" x2="703" y2="361.5"/>
<line class="st5" x1="649" y1="369.5" x2="703" y2="369.5"/>
<line class="st5" x1="649" y1="401.5" x2="703" y2="401.5"/>
<line class="st5" x1="649" y1="409.5" x2="703" y2="409.5"/>
<line class="st5" x1="649" y1="441.5" x2="703" y2="441.5"/>
<line class="st5" x1="649" y1="449.5" x2="703" y2="449.5"/>
<line class="st5" x1="649" y1="480.5" x2="703" y2="480.5"/>
<line class="st5" x1="649" y1="488.5" x2="703" y2="488.5"/>
<line class="st5" x1="649" y1="517.5" x2="703" y2="517.5"/>
<line class="st5" x1="649" y1="525.5" x2="703" y2="525.5"/>
<line class="st5" x1="649" y1="557.5" x2="703" y2="557.5"/>
<line class="st5" x1="649" y1="565.5" x2="703" y2="565.5"/>
<line class="st5" x1="649" y1="596.5" x2="703" y2="596.5"/>
<line class="st5" x1="649" y1="604.5" x2="703" y2="604.5"/>
<line class="st5" x1="649" y1="636.5" x2="703" y2="636.5"/>
<line class="st5" x1="649" y1="644.5" x2="703" y2="644.5"/>
<line class="st5" x1="649" y1="676.5" x2="703" y2="676.5"/>
<line class="st5" x1="649" y1="684.5" x2="703" y2="684.5"/>
<line class="st5" x1="649" y1="715.5" x2="703" y2="715.5"/>
<line class="st5" x1="649" y1="723.5" x2="703" y2="723.5"/>
</svg>
