<?xml version="1.0" encoding="utf-8"?>
<!-- Generator: Adobe Illustrator 22.1.0, SVG Export Plug-In . SVG Version: 6.00 Build 0)  -->
<svg version="1.1" id="Calque_1" xmlns="http://www.w3.org/2000/svg" xmlns:xlink="http://www.w3.org/1999/xlink" x="0px" y="0px"
	 viewBox="0 0 310.3 310.3" style="enable-background:new 0 0 310.3 310.3;" xml:space="preserve">
<style type="text/css">
	.st0{fill:#00136C;}
	.st1{fill:#7A1589;}
	.st2{fill:#C3F1FF;stroke:#000000;stroke-width:5;stroke-miterlimit:10;}
	.st3{fill:#C3F1FF;}
	.st4{fill:#F87D42;}
	.st5{fill:#35D0BA;}
	.st6{fill:none;stroke:#140609;stroke-width:5;stroke-miterlimit:10;}
	.st7{fill:none;stroke:#000000;stroke-width:5;stroke-miterlimit:10;}
	.st8{fill:#FFFFFF;}
	.st9{fill:#E91FFF;}
</style>
<circle class="st0" cx="155.7" cy="155.7" r="150"/>
<circle class="st1" cx="153.7" cy="155.7" r="106.1"/>
<path class="st2" d="M155.7,241c-16,0-19.2,0-23.1,0c-13.4,0-14.1,11.3-14.1,11.3h74.3c0,0-0.6-11.3-14.1-11.3
	C174.9,241,171.7,241,155.7,241"/>
<g>
	<g>
		<path class="st3" d="M155.7,225.2c-51.6,0.2-70.5-45.9-70.5-66.6V83.8c0,0-0.6-2.7,2.3-7.8c2.9-5.1,11-5.2,11-5.2h57.2"/>
		<path class="st3" d="M155.7,225.2c51.6,0.2,70.5-45.9,70.5-66.6V83.8c0,0,0.6-2.7-2.3-7.8c-2.9-5.1-11-5.2-11-5.2h-57.2"/>
	</g>
	<line class="st4" x1="98.4" y1="70.8" x2="155.7" y2="70.8"/>
</g>
<path class="st5" d="M85.2,155.7c0,0,24.4,46.4,70.5,46.4s70.5-46.4,70.5-46.4s-2.4,70.1-73.8,69.6
	C90.2,225.2,85.2,155.7,85.2,155.7z"/>
<path class="st2" d="M85.2,101.5c0,0-9.2,0.1-21.3,0.1c0,0-7.5-0.3-12.9,5.5c-3.2,3.4-3.4,6.8-3.4,10.1s0,20.5,0,25.2
	c0,33.6,25.1,48.3,48.3,51.7l-5.3-10.3l-4-10.2c-20.3-7.4-22.4-25-22.4-34.4s0-19.7,0-19.7h20.9L85.2,101.5z"/>
<path class="st2" d="M227,102.3c0,0,9.2,0.2,21.3,0.4c0,0,7.5-0.2,12.8,5.6c3.2,3.5,3.3,6.9,3.3,10.1c0,3.2-0.2,20.5-0.3,25.2
	c-0.4,33.6-25.6,48-48.9,51.1l5.4-10.3l4.1-10.2c20.4-7.1,22.7-24.8,22.8-34.1c0.1-9.4,0.2-19.7,0.2-19.7l-20.9-0.2L227,102.3z"/>
<path class="st3" d="M172.2,223.6V240h-33.1v-16.5c0,0,9.2,3.4,15.7,3.3S172.2,223.6,172.2,223.6z"/>
<g>
	<path class="st3" d="M155.7,252.4c-21.3,0-25.6,0-30.7,0c-17.9,0-18.7,13.6-18.7,15.1s0,10.2,0,10.2h49.3"/>
	<path class="st3" d="M155.7,252.4c21.3,0,25.6,0,30.7,0c17.9,0,18.7,13.6,18.7,15.1s0,10.2,0,10.2h-49.3"/>
</g>
<rect x="106.3" y="268.5" class="st5" width="98.7" height="6.9"/>
<path class="st5" d="M139.1,230.4c0,0,5.7,2.7,16.5,2.5c10.9-0.2,16.5-2.5,16.5-2.5v-4.2l-32.1-0.9L139.1,230.4z"/>
<g>
	<g>
		<path class="st6" d="M155.7,226.8c-51.6,0.2-70.5-46.4-70.5-67.3V83.9c0,0-0.6-2.7,2.3-7.9c2.9-5.2,11-5.2,11-5.2h57.2"/>
		<path class="st6" d="M155.7,226.8c51.6,0.2,70.5-46.4,70.5-67.3V83.9c0,0,0.6-2.7-2.3-7.9s-11-5.2-11-5.2h-57.2"/>
	</g>
	<line class="st6" x1="98.4" y1="70.8" x2="155.7" y2="70.8"/>
</g>
<polyline class="st6" points="139.1,224.7 139.1,241.1 172.2,241.1 172.2,224.7 "/>
<g>
	<path class="st7" d="M155.7,252.4c-21.3,0-25.6,0-30.7,0c-17.9,0-18.7,13.6-18.7,15.1s0,10.2,0,10.2h49.3"/>
	<path class="st7" d="M155.7,252.4c21.3,0,25.6,0,30.7,0c17.9,0,18.7,13.6,18.7,15.1s0,10.2,0,10.2h-49.3"/>
</g>
<g>
	<g>
		<path class="st8" d="M135.9,84.7c22.5,0,45,0,67.4,0c3.9,0,3.9-6,0-6c-22.5,0-45,0-67.4,0C132.1,78.7,132.1,84.7,135.9,84.7
			L135.9,84.7z"/>
	</g>
</g>
<g>
	<g>
		<path class="st8" d="M133.3,264.9c13.6,0,27.2,0,40.9,0c3.9,0,3.9-6,0-6c-13.6,0-27.2,0-40.9,0
			C129.4,258.9,129.4,264.9,133.3,264.9L133.3,264.9z"/>
	</g>
</g>
<g>
	<g>
		<path class="st8" d="M196.8,96.5c4.4,0,8.8,0,13.1,0c3.9,0,3.9-6,0-6c-4.4,0-8.8,0-13.1,0C192.9,90.5,192.9,96.5,196.8,96.5
			L196.8,96.5z"/>
	</g>
</g>
<g>
	<g>
		<path class="st8" d="M242,114.3c3.6,0,7.1,0,10.7,0c3.9,0,3.9-6,0-6c-3.6,0-7.1,0-10.7,0C238.2,108.3,238.1,114.3,242,114.3
			L242,114.3z"/>
	</g>
</g>
<g>
	<g>
		<g>
			<path class="st8" d="M221.5,54.4c6.9,0,13.7,0,20.6,0c3.9,0,3.9-6,0-6c-6.9,0-13.7,0-20.6,0C217.6,48.4,217.6,54.4,221.5,54.4
				L221.5,54.4z"/>
		</g>
	</g>
	<g>
		<g>
			<path class="st8" d="M234.7,60.3c0-5.9,0-11.8,0-17.8c0-3.9-6-3.9-6,0c0,5.9,0,11.8,0,17.8C228.7,64.1,234.7,64.1,234.7,60.3
				L234.7,60.3z"/>
		</g>
	</g>
</g>
<g>
	<g>
		<g>
			<path class="st8" d="M245,70.8c4.1-1.1,7.9-4.2,8-8.7c0-1.6-1.4-3-3-3c-1.7,0-3,1.4-3,3c0,0.8,0.2-0.5,0,0.2
				c-0.1,0.2-0.1,0.3-0.1,0.5c0.2-0.6-0.1,0-0.1,0.1c-0.2,0.5,0.2-0.2,0,0.1c-0.3,0.3-0.5,0.6-0.8,0.8c-0.3,0.2,0.4-0.3,0,0
				c-0.2,0.1-0.4,0.2-0.6,0.4c-0.3,0.2-0.6,0.3-0.9,0.5c-0.7,0.4,0.4-0.1-0.2,0.1c-0.3,0.1-0.5,0.2-0.8,0.3
				C239.7,66,241.3,71.8,245,70.8L245,70.8z"/>
		</g>
	</g>
	<g>
		<g>
			<path class="st8" d="M247.2,62.8c1.1,4.1,4.2,7.9,8.7,8c1.6,0,3-1.4,3-3c0-1.7-1.4-3-3-3c-0.8,0,0.5,0.2-0.2,0
				c-0.2-0.1-0.3-0.1-0.5-0.1c0.6,0.2,0-0.1-0.1-0.1c-0.5-0.2,0.2,0.2-0.1,0c-0.3-0.3-0.6-0.5-0.8-0.8c-0.2-0.3,0.3,0.4,0,0
				c-0.1-0.2-0.2-0.4-0.4-0.6c-0.2-0.3-0.3-0.6-0.5-0.9c-0.4-0.7,0.1,0.4-0.1-0.2c-0.1-0.3-0.2-0.5-0.3-0.8
				C251.9,57.5,246.1,59.1,247.2,62.8L247.2,62.8z"/>
		</g>
	</g>
	<g>
		<g>
			<path class="st8" d="M255.1,65c-4.1,1.1-7.9,4.2-8,8.7c0,1.6,1.4,3,3,3c1.7,0,3-1.4,3-3c0-0.8-0.2,0.5,0-0.2
				c0.1-0.2,0.1-0.3,0.1-0.5c-0.2,0.6,0.1,0,0.1-0.1c0.2-0.5-0.2,0.2,0-0.1c0.3-0.3,0.5-0.6,0.8-0.8c0.3-0.2-0.4,0.3,0,0
				c0.2-0.1,0.4-0.2,0.6-0.4c0.3-0.2,0.6-0.3,0.9-0.5c0.7-0.4-0.4,0.1,0.2-0.1c0.3-0.1,0.5-0.2,0.8-0.3
				C260.4,69.7,258.8,63.9,255.1,65L255.1,65z"/>
		</g>
	</g>
	<g>
		<g>
			<path class="st8" d="M253,72.9c-1.1-4.1-4.2-7.9-8.7-8c-1.6,0-3,1.4-3,3c0,1.7,1.4,3,3,3c0.8,0-0.5-0.2,0.2,0
				c0.2,0.1,0.3,0.1,0.5,0.1c-0.6-0.2,0,0.1,0.1,0.1c0.5,0.2-0.2-0.2,0.1,0c0.3,0.3,0.6,0.5,0.8,0.8c0.2,0.3-0.3-0.4,0,0
				c0.1,0.2,0.2,0.4,0.4,0.6c0.2,0.3,0.3,0.6,0.5,0.9c0.4,0.7-0.1-0.4,0.1,0.2c0.1,0.3,0.2,0.5,0.3,0.8
				C248.2,78.2,254,76.7,253,72.9L253,72.9z"/>
		</g>
	</g>
</g>
<path class="st5" d="M116.7,152.8c0,0,32.2,45.2,38.9,45.6c6.8,0.3,37.9-45.6,37.9-45.6H116.7z"/>
<polygon class="st9" points="155.2,187.7 118.5,150.4 130.4,130.3 176.9,130.3 190.9,150.9 "/>
<g transform="translate(0,-952.36218)">
	<path d="M130.4,1082.7l-13.9,19.1c-0.7,1-0.6,2.4,0.2,3.3l36.5,40c1,1.1,2.9,1.1,3.9,0l36.5-40c0.8-0.9,0.9-2.3,0.2-3.3l-13.9-19.1
		c-0.5-0.7-1.3-1.1-2.1-1.1h-45.2C131.7,1081.6,130.9,1082.1,130.4,1082.7z M136.4,1086.9h13.3l-9,11L136.4,1086.9z M160.7,1086.9
		h13.3l-4.3,11L160.7,1086.9z M155.1,1088.4l10.2,12.4H145L155.1,1088.4z M131.9,1089.6l4.3,11.1h-12.4L131.9,1089.6z M178.4,1089.6
		l8.1,11.1h-12.4L178.4,1089.6z M124.6,1106h13.6l10.1,26L124.6,1106z M143.8,1106h22.7l-11.4,29.3L143.8,1106z M172.1,1106h13.6
		l-23.7,25.9L172.1,1106z"/>
</g>
<g>
	<path d="M133.1,163.2c-0.6,0-0.9-0.3-0.9-0.9V158c0-3.9,1.6-4.8,3.9-5.5l3.3-1c0.5-0.1,0.7-0.4,0.7-0.9c0-0.5-0.2-0.6-0.7-0.6H134
		c-0.6,0-0.9-0.3-0.9-0.9v-2.9c0-0.6,0.3-0.9,0.9-0.9h7.4c2.8,0,4.4,1.4,4.4,4.1v2.3c0,2.5-1.5,3.7-3.9,4.4l-3.4,1.1
		c-0.5,0.1-0.6,0.2-0.6,0.7v0.5h7.1c0.6,0,0.9,0.3,0.9,0.9v2.9c0,0.6-0.3,0.9-0.9,0.9H133.1z"/>
	<path d="M156.2,163.6c-6.1,0-7.6-2-7.6-5.1V150c0-3,1.5-5.1,7.6-5.1s7.6,2.1,7.6,5.1v8.5C163.9,161.5,162.4,163.6,156.2,163.6z
		 M156.2,158.8c1.7,0,2-0.5,2-1.2v-6.7c0-0.6-0.3-1.1-2-1.1c-1.7,0-2,0.5-2,1.1v6.7C154.2,158.3,154.5,158.8,156.2,158.8z"/>
	<path d="M174.4,163.6c-6.1,0-7.6-2-7.6-5.1V150c0-3,1.5-5.1,7.6-5.1c6.1,0,7.6,2.1,7.6,5.1v8.5C182,161.5,180.6,163.6,174.4,163.6z
		 M174.4,158.8c1.7,0,2-0.5,2-1.2v-6.7c0-0.6-0.3-1.1-2-1.1c-1.7,0-2,0.5-2,1.1v6.7C172.4,158.3,172.7,158.8,174.4,158.8z"/>
</g>
<g>
	<path class="st8" d="M130.2,160.3c-0.6,0-0.9-0.3-0.9-0.9v-4.3c0-3.9,1.6-4.8,3.9-5.5l3.3-1c0.5-0.1,0.7-0.4,0.7-0.9
		c0-0.5-0.2-0.6-0.7-0.6h-5.4c-0.6,0-0.9-0.3-0.9-0.9v-2.9c0-0.6,0.3-0.9,0.9-0.9h7.4c2.8,0,4.4,1.4,4.4,4.1v2.3
		c0,2.5-1.5,3.7-3.9,4.4l-3.4,1.1c-0.5,0.1-0.6,0.2-0.6,0.7v0.5h7.1c0.6,0,0.9,0.3,0.9,0.9v2.9c0,0.6-0.3,0.9-0.9,0.9H130.2z"/>
	<path class="st8" d="M153.4,160.7c-6.1,0-7.6-2-7.6-5.1V147c0-3,1.5-5.1,7.6-5.1s7.6,2.1,7.6,5.1v8.5
		C161,158.6,159.5,160.7,153.4,160.7z M153.4,155.8c1.7,0,2-0.5,2-1.2v-6.7c0-0.6-0.3-1.1-2-1.1c-1.7,0-2,0.5-2,1.1v6.7
		C151.4,155.3,151.7,155.8,153.4,155.8z"/>
	<path class="st8" d="M171.5,160.7c-6.1,0-7.6-2-7.6-5.1V147c0-3,1.5-5.1,7.6-5.1c6.1,0,7.6,2.1,7.6,5.1v8.5
		C179.2,158.6,177.7,160.7,171.5,160.7z M171.5,155.8c1.7,0,2-0.5,2-1.2v-6.7c0-0.6-0.3-1.1-2-1.1c-1.7,0-2,0.5-2,1.1v6.7
		C169.5,155.3,169.8,155.8,171.5,155.8z"/>
</g>
</svg>
