<?xml version="1.0" encoding="utf-8"?>
<!-- Generator: Adobe Illustrator 22.1.0, SVG Export Plug-In . SVG Version: 6.00 Build 0)  -->
<svg version="1.1" id="Calque_1" xmlns="http://www.w3.org/2000/svg" xmlns:xlink="http://www.w3.org/1999/xlink" x="0px" y="0px"
	 viewBox="0 0 43.3 56.7" style="enable-background:new 0 0 43.3 56.7;" xml:space="preserve">
<style type="text/css">
	.st0{fill:#F87D42;}
</style>
<title>New</title>
<desc>Created with Sketch.</desc>
<g>
	<path class="st0" d="M23.8,30.3h5c1.1,0,2,0.9,2,2c0,1.1-0.9,2-2,2h-5v5c0,1.1-0.9,2-2,2s-2-0.9-2-2v-5h-5c-1.1,0-2-0.9-2-2
		c0-1.1,0.9-2,2-2h5v-5c0-1.1,0.9-2,2-2s2,0.9,2,2V30.3z M26.7,5.3H6.8c-0.6,0-1,0.4-1,0.9v44.2c0,0.5,0.4,0.9,1,0.9h30
		c0.6,0,1-0.4,1-0.9V17.3h-9.1c-1.1,0-2-0.9-2-2L26.7,5.3C26.7,5.4,26.7,5.3,26.7,5.3z M30.7,5.8v7.5h7.1v-0.9
		c0-0.2-0.1-0.5-0.3-0.6L30.7,5.8z M6.8,1.3h22.9c1.3,0,2.6,0.5,3.5,1.3l7.1,6.3c0.9,0.8,1.5,2,1.5,3.2v38.7c0,2.5-2.2,4.5-5,4.5
		h-30c-2.8,0-5-2-5-4.5v-45C1.8,3.3,4.1,1.3,6.8,1.3z"/>
</g>
</svg>
