<?xml version="1.0" encoding="utf-8"?>
<!-- Generator: Adobe Illustrator 22.1.0, SVG Export Plug-In . SVG Version: 6.00 Build 0)  -->
<svg version="1.1" id="Calque_1" xmlns="http://www.w3.org/2000/svg" xmlns:xlink="http://www.w3.org/1999/xlink" x="0px" y="0px"
	 viewBox="0 0 1000 1000" style="enable-background:new 0 0 1000 1000;" xml:space="preserve">
<style type="text/css">
	.st0{fill:#C3F1FF;}
	.st1{fill:#35D0BA;}
	.st2{fill:#C3F1FF;stroke:#000000;stroke-width:7;stroke-miterlimit:10;}
	.st3{fill:none;stroke:#D9F8FF;stroke-width:5;stroke-miterlimit:10;}
	.st4{fill:none;stroke:#000000;stroke-width:7;stroke-miterlimit:10;}
	.st5{fill:#FFF4F0;}
	.st6{fill:none;stroke:#000000;stroke-width:5;stroke-miterlimit:10;}
	.st7{fill:none;stroke:#252525;stroke-width:7;stroke-miterlimit:10;}
	.st8{fill:#252525;}
	.st9{fill:none;stroke:#252525;stroke-miterlimit:10;}
	.st10{fill:none;stroke:#252525;stroke-width:2;stroke-miterlimit:10;}
</style>
<path class="st0" d="M958.9,479.7c0,0,20.1,1.1,30.8,5.3c10.7,4.1,20.4,5.8,20.7,12.9c0.3,7.2-3,16.9-6,18.2
	c-10,4.3-23.5-2.2-23.5-2.2l-5-0.8c0,0-3.6,9.8-7.3,6.7c-3.7-3.1-7.4-8.8-7-10.5s-11-12.9-11-12.9L958.9,479.7z"/>
<path class="st1" d="M958.1,493.8c1.4,0.6,6.6,4,12.1,4.1c5.6,0.1,4.7,1.2,10.9,3.7c6.3,2.6,7.3,3.4,12.7,4.3
	c5.4,1,13.3,5.1,11.9,6.2c-1.5,1.2-8.1,7-18.7,5.5c-10.6-1.6-13.9-2.4-13.9-2.4s-1.2,6.9-5.6,4.9s-5.9-10.8-5.9-10.8l-7.3-5.7
	l2.7-9.9H958.1z"/>
<path class="st0" d="M921.7,333.7c0,0,39.3,2,33.6,39.7c-5.7,37.8-38,31.1-38,31.1"/>
<path class="st2" d="M711.7,321.3c0,0-39.2-2.7-38,35.5c1.2,38.2,34.1,35.3,34.1,35.3"/>
<path class="st3" d="M753.1,573.7c-19,43.7-60.8,67.4-65.9,70.6s-26.5,7.2-107-10.9c-75.5-16.9-200.1-31.1-197.5-49.5
	c3.1-21.7,16-49,42-25.4s57,52.1-41,69.8c-98,17.7-84.1-65.4-156.1-97S47.2,513-3.2,522.3c-115,21.2-300.6-12.9-320.9,79.4
	c-9.3,42.1,118.9-15.1-67.1-44.1s-409.3,79.2-498-20.8c-74.1-83.5,23-166.6-148-373.6s-728.4,0.8-785.4-191.2"/>
<g>
	<path class="st0" d="M715.5,429.1c-7.1,7.2-16,139.9-16,139.9s96,20,139.2,14.4s66.4-12.5,66.4-12.5s13.2-120.8,5.1-133.7
		C902,424.1,715.5,429.1,715.5,429.1z"/>
	<g>
		<path d="M712.3,425.9c-4,4.4-4.4,12.4-5.3,17.9c-1.8,11.2-3.1,22.4-4.3,33.7c-2.6,24.7-4.7,49.5-6.5,74.2
			c-0.4,5.7-0.8,11.5-1.2,17.2c-0.1,1.9,1.5,4,3.3,4.3c21.7,4.5,43.6,8.1,65.5,11c17.1,2.3,34.2,4.1,51.5,4.5
			c18.9,0.4,37.5-2.6,56.1-6c11.7-2.1,23.5-4.3,34.9-7.7c2.1-0.6,3.1-2.3,3.3-4.3c2.3-20.8,4.1-41.7,5.6-62.5
			c1.1-15.1,2-30.3,2.1-45.5c0-5.6,0-11.2-0.6-16.8c-0.4-3.6-0.6-7.8-2.5-11c-3.1-5.3-11.5-6.1-16.9-6.9c-11.3-1.7-22.8-2.5-34.2-3
			c-30.1-1.5-60.2-1.5-90.3-1.3c-19.1,0.1-38.2,0.4-57.2,0.9c-5.8,0.2-5.8,9.2,0,9c44.2-1.2,88.5-1.6,132.8-0.1
			c12.7,0.4,25.4,1,38,2.2c4.2,0.4,8.4,0.9,12.6,1.7c1.6,0.3,3.2,0.7,4.8,1.1c0.6,0.2,1.2,0.4,1.7,0.6c1.2,0.4-0.5-0.3,0.8,0.4
			c1,0.5,0.6,0.3,0.4,0.2c0.5,0.2,0-0.8,0,0.1c0,0.1-0.1-0.3,0.2,0.8c0.2,0.9,0.4,1.8,0.6,2.7c0.7,4,0.8,9.2,0.9,13.8
			c0.2,14.1-0.6,28.3-1.5,42.3c-1.5,23.8-3.6,47.7-6.2,71.4c1.1-1.4,2.2-2.9,3.3-4.3c-8.8,2.6-17.8,4.4-26.7,6.2
			c-18.5,3.6-37.4,7.2-56.3,7.2c-32.1,0.1-64.3-5.1-95.9-10.6c-8.1-1.4-16.2-2.9-24.3-4.6c1.1,1.4,2.2,2.9,3.3,4.3
			c2.6-39.1,5.2-78.5,10.9-117.3c0.7-4.6,1.4-9.2,2.4-13.8c0.3-1.6,0.7-3.1,1.2-4.6c0.1-0.4,0.8-1.9,0.2-0.6
			c0.4-0.9,0.4-0.7,0.1-0.3C722.5,428,716.2,421.6,712.3,425.9z"/>
	</g>
</g>
<ellipse transform="matrix(6.294093e-02 -0.998 0.998 6.294093e-02 401.1753 1154.3116)" class="st0" cx="815.3" cy="363.5" rx="101.3" ry="111.7"/>
<path class="st1" d="M868.9,277.7l-1.1,17.6c0,0-15.7-7.1-36.1-9.2c-10.2-0.9-10.2-0.9-10.2-0.9l1.4-22.7
	C823,262.5,856.6,270,868.9,277.7z"/>
<path class="st0" d="M880.5,453.1C863.4,455.7,741,437,741,437c-10.1,16-61.2,45-71.2,48.1c1.1,1.3-48.8,20.9-46.5,24.9
	c1.7,3-5.5,15.7-1.6,16.3c20.2,3.1,42.5,0.3,47.9,5.1c-3.3-18.8,7.1-24,9.6-18.4c16.1-5.6,26.8-6.9,60.7-33.1
	c-30.7,58.1-11.7,106.8-11.7,106.8l-3,11.8c0,0-27.7-5.4-28.2,9.8s29.9,26.1,48,26.1c18.2,0.1,20.1,3.1,23.7-12.7
	c3.6-15.7,1.5-33,13-41.9c11.5-8.9,23.7-17.4,33.6-2.1c9.9,15.3-1.4,50.5,2,61.3c3.5,10.9,4.8,8.2,23.4,9.1c18.6,0.9,48,4.7,47.7-6
	s-3.5-17.2-12.1-20.3c-8.5-3-11.3-10.6-11.3-10.6s7.3-11.8,9.2-16.9c1.9-5,12.1-34.8,12.6-51.4c0.5-16.5-6.1-62.5-6.1-62.5
	s15.1-6.3,33.7-3.6l33,16.5l8.5,9.1l14.1-17.1c0,0,0.5-7.3-9.3-12.1s-28-11.9-37.6-14.5S880.5,453.1,880.5,453.1"/>
<path class="st1" d="M801.3,431.7c0,0,10.8,4,10.4,9.8c-0.4,5.8,1.1,14.7-12.4,21.2c42.2-1.4,71.7-2,97-29.9
	c25.4-27.9,24.5-29.9,24.5-29.9s21.7,4.5,28.5-8.4c6.8-12.8,3.8-39.9-10.5-45.3c-14.3-5.5-14.9-7.9-14.9-7.9s-10.6-41.3-33.8-53
	c-6.7-4.3-7.3-3-7.3-3l-1.6,22c0,0,30.7,22.7,13.7,73.3C877.9,431.3,830.2,429.9,801.3,431.7z"/>
<path class="st1" d="M739.2,481.5l-13.6-2.1c0,0-18.5,23.5-65.4,31c-19,2.9-38,8.2-38,8.2s1,15.5,17.8,12.4
	c16.8-3.1,20.2-3.4,20.2-3.4s2.8,7.7,7.3,4.6c4.5-3.1,1.4-11.8,1.7-14.2c0,0,42.6-18,46.1-20.6C718.7,494.7,739.2,481.5,739.2,481.5
	z"/>
<path class="st1" d="M801.3,554.9c0,0-41.1-7.9-48.9,81.6c8.2,2.9,12.3-3.8,12.3-3.8l9-33.4l12.9-24.1l8.7-4.6L801.3,554.9z"/>
<path class="st1" d="M882.8,480.5l1.6,17.8l2,64.6l-14.7,41.3l-5,14.6c0,0,19.5,8.4,21.1,11.5c5,9.5,2.2,18.7-13.1,17.8
	c-15.3-1-51.3-6-51.3-6l-1.9-42.4c0,0,1.1-18.2-9.5-27.5c-10.6-9.4-8.1-28.9-8.1-28.9l10.9-14.7c0,0,34.7-2.2,41-14.3
	s3.7-45.2,3.7-45.2c0.5-6,45.6-0.2,60.9,4.6c17.3,5.5,43.5,21.3,43.5,21.3l-8,8.5l-29.5-15.2l-30.7-5.9L882.8,480.5"/>
<path class="st1" d="M793.8,475.7c13.2,5.3,12.4,5.3,12.4,5.3l-1.9,30.8l3.2,8.9l41.7-12.7l2.8-44.2c0,0-23.8,9.9-41.5,8.8
	c-17.7-1.1-32.9-5-32.9-5S780,470.1,793.8,475.7z"/>
<path class="st4" d="M818,605.1l51.2,3.2l-4,11.3c0,0,26.4,1.7,23.7,18.1c-2.7,16.4-10.7,12.6-10.7,12.6
	c-11.6-0.7-49.5-3.1-54.5-3.4c-5-0.3-7.9-5.5-7.1-18.7C817.4,615,818,605.1,818,605.1z"/>
<path class="st4" d="M773.7,599.3L725,586.6l0.3,12c0,0-25.6-6.6-28.2,9.8s6.3,15.3,6.3,15.3c11.2,2.9,48,12.5,52.8,13.7
	c4.8,1.2,9.3-2.7,12.6-15.5C772.1,609.1,773.7,599.3,773.7,599.3z"/>
<ellipse transform="matrix(6.294093e-02 -0.998 0.998 6.294093e-02 401.9442 1153.1696)" class="st4" cx="815.1" cy="362.5" rx="101.3" ry="111.7"/>
<g>
	<g>
		<path class="st5" d="M818.5,293.8c54.5,3.4,78.2,21.5,75.4,66.1c-2.8,44.6-37.3,65.6-83.5,62.7"/>
		<path class="st5" d="M818.5,293.8c-54.5-2.7-81.8,12.5-84,57.1c-2.2,44.6,29.7,69.4,75.9,71.7"/>
	</g>
</g>
<g>
	<g>
		<path class="st6" d="M817.8,293.5c54.5,3.4,78.2,21.5,75.4,66.1s-37.3,65.6-83.5,62.7"/>
		<path class="st6" d="M817.8,293.5c-54.5-2.7-81.8,12.5-84,57.1s29.7,69.4,75.9,71.7"/>
	</g>
</g>
<path class="st7" d="M921.7,333.7c0,0,39.3,2,33.6,39.7c-5.7,37.8-38,31.1-38,31.1"/>
<path class="st4" d="M921.8,333.7c0,0,39.3,2,33.6,39.7c-5.7,37.8-38,31.1-38,31.1"/>
<path class="st4" d="M875.7,278.1c0,0,0.5,15-1.9,30.6"/>
<path class="st4" d="M762.9,270.9c0,0-2.8,13.4-3.3,30.6"/>
<path class="st4" d="M851.2,458.9c0,0,1.4,44-3.8,48.7s-44,13.8-44,13.8"/>
<path class="st4" d="M767.8,451.2c0,0-9.4,43-5.1,48.6c4.3,5.5,40.7,21.6,40.7,21.6"/>
<path class="st4" d="M819.4,604.4c0,0,6.3-32.8-19.1-34.4c1.2-19.8,3.1-48.7,3.1-48.7"/>
<path class="st4" d="M771.6,598.9c0,0,9.9-30,28.7-28.9"/>
<path class="st4" d="M727.6,586.8c0,0-19-48.6,11.7-106.8c-32.8,26.3-44.6,27.5-60.7,33.1c3.7-12.6-6.9-24.9-9.4-27.9
	c9.9-3.1,61.1-32.2,71.2-48.1"/>
<path class="st4" d="M868.1,608.3c0,0,20.5-36.9,19.4-81.7c-0.4-18.2-4.8-46.2-4.8-46.2s18.5,1.8,34.5,5.8
	c25.2,6.2,38.6,17.2,38.6,17.2s11.5-10.7,16.8-21.1c-32.3-29-95.2-35-95.2-35"/>
<g>
	<g>
		<path class="st8" d="M658.4,528.1c3.9,0,3.9-6,0-6C654.5,522.1,654.5,528.1,658.4,528.1L658.4,528.1z"/>
	</g>
</g>
<path d="M813.9,370.9c-11-0.7-12.8,18.6-1.9,19.9c0.4,0.1,0.9,0.1,1.4,0.1c0.5,0,0.9,0,1.4,0c10.9-0.1,11.4-19.3,0.5-20L813.9,370.9
	z"/>
<path d="M856.8,336.6c-8.4-0.5-10.1,18.7-1.8,19.9c0.3,0,0.7,0.1,1,0.1c0.4,0,0.7,0,1.1,0c8.3-0.2,9-19.4,0.7-20L856.8,336.6z"/>
<path d="M770.4,328.8c-8.4-0.5-10.1,18.7-1.8,19.9c0.3,0,0.7,0.1,1,0.1c0.4,0,0.7,0,1.1,0c8.3-0.2,9-19.4,0.7-20L770.4,328.8z"/>
<ellipse transform="matrix(6.294093e-02 -0.998 0.998 6.294093e-02 360.8422 1107.5701)" cx="770.2" cy="361.6" rx="3.7" ry="7.9"/>
<ellipse transform="matrix(0.1581 -0.9874 0.9874 0.1581 358.3902 1154.4226)" cx="856.2" cy="367" rx="3.7" ry="7.9"/>
<path class="st9" d="M693.4,324.3"/>
<line class="st4" x1="693.4" y1="285.8" x2="695.7" y2="324.3"/>
<circle cx="693.7" cy="281.9" r="11.7"/>
<path class="st10" d="M633.2,453.3"/>
<g>
	<g>
		<g>
			<path d="M655.7,521.9c-7.7,3.7-23.2,9.5-29.2-0.2c-4.8-7.8,1.5-14.4,8.4-17.3c3.8-1.6,7.8-2.5,11.7-4.2c8.2-3.5,16-7.1,24.5-9.6
				c3.7-1.1,2.1-6.9-1.6-5.8c-4.2,1.3-8.5,2.5-12.5,4.2c-5.7,2.3-11.1,5.6-17,7.5c-5.7,1.9-11.3,3.4-15.8,7.6
				c-6.9,6.4-6.9,17.6,0.1,24.1c9.4,8.7,24.6,3.6,34.5-1.2C662.2,525.5,659.2,520.3,655.7,521.9L655.7,521.9z"/>
		</g>
	</g>
	<g>
		<g>
			<path d="M671.6,511.8c-1.6,1.2-3.2,2.4-4.9,3.6c-1.3,0.9-1.9,2.6-1.1,4.1c0.8,1.3,2.8,2,4.1,1.1c2.1-1.4,4.1-3,6.1-4.5
				c1.3-1,1-3.2,0-4.2C674.6,510.6,672.9,510.8,671.6,511.8L671.6,511.8z"/>
		</g>
	</g>
	<g>
		<g>
			<path d="M652.5,522.1c2,4.6,5.9,11,11.4,11.5c3.9,0.4,7.4-2.5,8.5-6.2c1.1-3.7-0.1-7.6-1.6-11c-1.6-3.5-6.8-0.5-5.2,3
				c0.8,1.8,1.7,4.4,1,6.4c-0.7,1.9-2.1,2.2-3.6,1.1c-2.4-1.8-4.1-5.1-5.3-7.9C656.1,515.5,651,518.6,652.5,522.1L652.5,522.1z"/>
		</g>
	</g>
</g>
<g>
	<g>
		<g>
			<path d="M973.6,515.6c9.6,3,22.9,6.4,32.2,0.4c6.9-4.5,8.4-14.1,4.6-21.1c-3.6-6.7-11.1-10.4-18.1-12.3
				c-7.1-1.9-14.3-3.5-21.3-5.7c-3.7-1.2-5.3,4.6-1.6,5.8c6.1,1.9,12.2,3.6,18.4,5c4.9,1.1,9.9,2.6,13.8,5.9c5,4.1,7.4,13,1.2,17.3
				c-7.5,5.3-19.8,1.4-27.5-1C971.5,508.7,969.9,514.5,973.6,515.6L973.6,515.6z"/>
		</g>
	</g>
	<g>
		<g>
			<path d="M955.3,507.5c1.7,1,3.4,1.9,5.2,2.7c1.5,0.7,3.2,0.4,4.1-1.1c0.8-1.3,0.4-3.4-1.1-4.1c-1.8-0.9-3.5-1.8-5.2-2.7
				c-1.4-0.8-3.3-0.3-4.1,1.1C953.5,504.8,953.9,506.7,955.3,507.5L955.3,507.5z"/>
		</g>
	</g>
	<g>
		<g>
			<path d="M973,507.5c-0.8,3-2,6.8-4.4,8.9c-1.5,1.3-3.1,0.7-3.9-1.2c-0.9-2-0.4-4.7,0.2-6.8c1-3.7-4.8-5.3-5.8-1.6
				c-1,3.6-1.4,7.6,0.2,11c1.7,3.7,6,6.2,10,4.9c5.4-1.7,8.1-8.8,9.4-13.8C979.8,505.4,974,503.8,973,507.5L973,507.5z"/>
		</g>
	</g>
</g>
</svg>
